<svg width="1078" height="143" viewBox="0 0 1078 143" fill="none" xmlns="http://www.w3.org/2000/svg">
<g clip-path="url(#clip0_25_4919)">
<mask id="path-1-inside-1_25_4919" fill="white">
<path d="M26 0H1078V116H26V0Z"/>
</mask>
<path d="M1078 114.768H26V117.232H1078V114.768Z" fill="#DCE4E8" mask="url(#path-1-inside-1_25_4919)"/>
<mask id="path-3-inside-2_25_4919" fill="white">
<path d="M26 86H1078V87H26V86Z"/>
</mask>
<path d="M1078 85.7684H26V88.2316H1078V85.7684Z" fill="#DCE4E8" mask="url(#path-3-inside-2_25_4919)"/>
<mask id="path-5-inside-3_25_4919" fill="white">
<path d="M26 44H1078V45H26V44Z"/>
</mask>
<path d="M1078 43.7684H26V46.2316H1078V43.7684Z" fill="#DCE4E8" mask="url(#path-5-inside-3_25_4919)"/>
<mask id="path-7-inside-4_25_4919" fill="white">
<path d="M46 116L46 40H47L47 116H46Z"/>
</mask>
<path d="M47.6158 116V112.2H46.3842V116H47.6158ZM47.6158 104.6V97H46.3842V104.6H47.6158ZM47.6158 89.4V81.8H46.3842V89.4H47.6158ZM47.6158 74.2V66.6H46.3842V74.2H47.6158ZM47.6158 59L47.6158 51.4H46.3842L46.3842 59H47.6158ZM47.6158 43.8V40H46.3842V43.8H47.6158ZM48.2316 116V112.2H45.7684V116H48.2316ZM48.2316 104.6V97H45.7684V104.6H48.2316ZM48.2316 89.4V81.8H45.7684V89.4H48.2316ZM48.2316 74.2V66.6H45.7684V74.2H48.2316ZM48.2316 59L48.2316 51.4H45.7684L45.7684 59H48.2316ZM48.2316 43.8V40H45.7684V43.8H48.2316Z" fill="#DCE4E8" mask="url(#path-7-inside-4_25_4919)"/>
<mask id="path-9-inside-5_25_4919" fill="white">
<path d="M103 117V40H104V117H103Z"/>
</mask>
<path d="M104.616 117V113.15H103.384V117H104.616ZM104.616 105.45V97.75H103.384V105.45H104.616ZM104.616 90.05V82.35H103.384V90.05H104.616ZM104.616 74.65V66.95H103.384V74.65H104.616ZM104.616 59.25V51.55H103.384V59.25H104.616ZM104.616 43.85V40H103.384V43.85H104.616ZM105.232 117V113.15H102.768V117H105.232ZM105.232 105.45V97.75H102.768V105.45H105.232ZM105.232 90.05V82.35H102.768V90.05H105.232ZM105.232 74.65V66.95H102.768V74.65H105.232ZM105.232 59.25V51.55H102.768V59.25H105.232ZM105.232 43.85V40H102.768V43.85H105.232Z" fill="#DCE4E8" mask="url(#path-9-inside-5_25_4919)"/>
<mask id="path-11-inside-6_25_4919" fill="white">
<path d="M160 116V39H161V116H160Z"/>
</mask>
<path d="M161.616 116V112.15H160.384V116H161.616ZM161.616 104.45V96.75H160.384V104.45H161.616ZM161.616 89.05V81.35H160.384V89.05H161.616ZM161.616 73.65V65.95H160.384V73.65H161.616ZM161.616 58.25V50.55H160.384V58.25H161.616ZM161.616 42.85V39H160.384V42.85H161.616ZM162.232 116V112.15H159.768V116H162.232ZM162.232 104.45V96.75H159.768V104.45H162.232ZM162.232 89.05V81.35H159.768V89.05H162.232ZM162.232 73.65V65.95H159.768V73.65H162.232ZM162.232 58.25V50.55H159.768V58.25H162.232ZM162.232 42.85V39H159.768V42.85H162.232Z" fill="#DCE4E8" mask="url(#path-11-inside-6_25_4919)"/>
<rect x="38" y="65" width="20" height="51" fill="#E7854D"/>
<rect x="94" y="73" width="20" height="43" fill="#E7854D"/>
<rect x="148" y="53" width="20" height="63" fill="#E7854D"/>
<rect x="388" y="53" width="20" height="63" fill="#E7854D"/>
<rect x="508" y="53" width="20" height="63" fill="#E7854D"/>
<rect x="628" y="53" width="20" height="63" fill="#E7854D"/>
<rect x="748" y="53" width="20" height="63" fill="#E7854D"/>
<rect x="868" y="53" width="20" height="63" fill="#E7854D"/>
<rect x="988" y="53" width="20" height="63" fill="#E7854D"/>
<rect x="268" y="53" width="20" height="63" fill="#E7854D"/>
<rect x="208" y="81" width="20" height="35" fill="#E7854D"/>
<rect x="448" y="81" width="20" height="35" fill="#E7854D"/>
<rect x="568" y="81" width="20" height="35" fill="#E7854D"/>
<rect x="688" y="81" width="20" height="35" fill="#E7854D"/>
<rect x="808" y="81" width="20" height="35" fill="#E7854D"/>
<rect x="928" y="81" width="20" height="35" fill="#E7854D"/>
<rect x="1048" y="81" width="20" height="35" fill="#E7854D"/>
<rect x="328" y="81" width="20" height="35" fill="#E7854D"/>
<path d="M2.346 46V38.344L0.72 39.322V38.332L2.346 37.36H3.24V46H2.346ZM8.21578 46.18C7.68378 46.18 7.20378 46.056 6.77578 45.808C6.35178 45.56 6.01578 45.224 5.76778 44.8C5.51978 44.372 5.39578 43.892 5.39578 43.36V40C5.39578 39.468 5.51978 38.99 5.76778 38.566C6.01578 38.138 6.35178 37.8 6.77578 37.552C7.20378 37.304 7.68378 37.18 8.21578 37.18C8.74778 37.18 9.22578 37.304 9.64978 37.552C10.0778 37.8 10.4158 38.138 10.6638 38.566C10.9118 38.99 11.0358 39.468 11.0358 40V43.36C11.0358 43.892 10.9118 44.372 10.6638 44.8C10.4158 45.224 10.0778 45.56 9.64978 45.808C9.22578 46.056 8.74778 46.18 8.21578 46.18ZM8.21578 45.328C8.57178 45.328 8.89578 45.242 9.18778 45.07C9.47978 44.894 9.71178 44.66 9.88378 44.368C10.0558 44.076 10.1418 43.754 10.1418 43.402V39.958C10.1418 39.602 10.0558 39.278 9.88378 38.986C9.71178 38.694 9.47978 38.462 9.18778 38.29C8.89578 38.114 8.57178 38.026 8.21578 38.026C7.85978 38.026 7.53578 38.114 7.24378 38.29C6.95178 38.462 6.71978 38.694 6.54778 38.986C6.37578 39.278 6.28978 39.602 6.28978 39.958V43.402C6.28978 43.754 6.37578 44.076 6.54778 44.368C6.71978 44.66 6.95178 44.894 7.24378 45.07C7.53578 45.242 7.85978 45.328 8.21578 45.328ZM12.594 46L12.6 37.36H13.488V42.64L16.38 39.52H17.556L14.52 42.76L17.952 46H16.668L13.488 42.88V46H12.594Z" fill="#ACB5BB"/>
<path d="M3.39 78.18C2.942 78.18 2.528 78.088 2.148 77.904C1.768 77.72 1.444 77.466 1.176 77.142C0.908 76.818 0.716 76.446 0.6 76.026L1.446 75.798C1.522 76.11 1.66 76.38 1.86 76.608C2.06 76.832 2.294 77.006 2.562 77.13C2.834 77.254 3.118 77.316 3.414 77.316C3.798 77.316 4.142 77.224 4.446 77.04C4.754 76.852 4.998 76.604 5.178 76.296C5.358 75.988 5.448 75.65 5.448 75.282C5.448 74.902 5.354 74.56 5.166 74.256C4.978 73.948 4.73 73.704 4.422 73.524C4.114 73.344 3.778 73.254 3.414 73.254C3.006 73.254 2.654 73.344 2.358 73.524C2.062 73.7 1.826 73.922 1.65 74.19L0.846 73.854L1.11 69.36H5.724V70.206H1.5L1.938 69.792L1.704 73.626L1.482 73.332C1.73 73.048 2.03 72.826 2.382 72.666C2.734 72.506 3.104 72.426 3.492 72.426C4.024 72.426 4.504 72.554 4.932 72.81C5.36 73.062 5.7 73.404 5.952 73.836C6.204 74.268 6.33 74.75 6.33 75.282C6.33 75.81 6.196 76.294 5.928 76.734C5.66 77.17 5.304 77.52 4.86 77.784C4.416 78.048 3.926 78.18 3.39 78.18ZM7.63978 78L7.64578 69.36H8.53378V74.64L11.4258 71.52H12.6018L9.56578 74.76L12.9978 78H11.7138L8.53378 74.88V78H7.63978Z" fill="#ACB5BB"/>
<path d="M2.346 110V102.344L0.72 103.322V102.332L2.346 101.36H3.24V110H2.346ZM5.38978 110L5.39578 101.36H6.28378V106.64L9.17578 103.52H10.3518L7.31578 106.76L10.7478 110H9.46378L6.28378 106.88V110H5.38978Z" fill="#ACB5BB"/>
<path d="M40.316 140.174C39.74 140.174 39.246 140.014 38.834 139.694C38.422 139.374 38.144 138.946 38 138.41L38.882 138.2C38.954 138.516 39.12 138.784 39.38 139.004C39.644 139.22 39.954 139.328 40.31 139.328C40.534 139.328 40.76 139.274 40.988 139.166C41.22 139.058 41.402 138.88 41.534 138.632C41.622 138.46 41.672 138.274 41.684 138.074C41.7 137.87 41.708 137.626 41.708 137.342V131.36H42.596V137.342C42.596 137.582 42.594 137.8 42.59 137.996C42.586 138.188 42.564 138.374 42.524 138.554C42.488 138.73 42.418 138.908 42.314 139.088C42.106 139.452 41.826 139.724 41.474 139.904C41.126 140.084 40.74 140.174 40.316 140.174ZM46.1404 140.18C45.6524 140.18 45.2424 140.092 44.9104 139.916C44.5824 139.74 44.3364 139.506 44.1724 139.214C44.0084 138.922 43.9264 138.604 43.9264 138.26C43.9264 137.908 43.9964 137.608 44.1364 137.36C44.2804 137.108 44.4744 136.902 44.7184 136.742C44.9664 136.582 45.2524 136.46 45.5764 136.376C45.9044 136.296 46.2664 136.226 46.6624 136.166C47.0624 136.102 47.4524 136.048 47.8324 136.004C48.2164 135.956 48.5524 135.91 48.8404 135.866L48.5284 136.058C48.5404 135.418 48.4164 134.944 48.1564 134.636C47.8964 134.328 47.4444 134.174 46.8004 134.174C46.3564 134.174 45.9804 134.274 45.6724 134.474C45.3684 134.674 45.1544 134.99 45.0304 135.422L44.1724 135.17C44.3204 134.59 44.6184 134.14 45.0664 133.82C45.5144 133.5 46.0964 133.34 46.8124 133.34C47.4044 133.34 47.9064 133.452 48.3184 133.676C48.7344 133.896 49.0284 134.216 49.2004 134.636C49.2804 134.824 49.3324 135.034 49.3564 135.266C49.3804 135.498 49.3924 135.734 49.3924 135.974V140H48.6064V138.374L48.8344 138.47C48.6144 139.026 48.2724 139.45 47.8084 139.742C47.3444 140.034 46.7884 140.18 46.1404 140.18ZM46.2424 139.418C46.6544 139.418 47.0144 139.344 47.3224 139.196C47.6304 139.048 47.8784 138.846 48.0664 138.59C48.2544 138.33 48.3764 138.038 48.4324 137.714C48.4804 137.506 48.5064 137.278 48.5104 137.03C48.5144 136.778 48.5164 136.59 48.5164 136.466L48.8524 136.64C48.5524 136.68 48.2264 136.72 47.8744 136.76C47.5264 136.8 47.1824 136.846 46.8424 136.898C46.5064 136.95 46.2024 137.012 45.9304 137.084C45.7464 137.136 45.5684 137.21 45.3964 137.306C45.2244 137.398 45.0824 137.522 44.9704 137.678C44.8624 137.834 44.8084 138.028 44.8084 138.26C44.8084 138.448 44.8544 138.63 44.9464 138.806C45.0424 138.982 45.1944 139.128 45.4024 139.244C45.6144 139.36 45.8944 139.418 46.2424 139.418ZM55.5144 140V136.694C55.5144 136.334 55.4804 136.004 55.4124 135.704C55.3444 135.4 55.2344 135.136 55.0824 134.912C54.9344 134.684 54.7404 134.508 54.5004 134.384C54.2644 134.26 53.9764 134.198 53.6364 134.198C53.3244 134.198 53.0484 134.252 52.8084 134.36C52.5724 134.468 52.3724 134.624 52.2084 134.828C52.0484 135.028 51.9264 135.272 51.8424 135.56C51.7584 135.848 51.7164 136.176 51.7164 136.544L51.0924 136.406C51.0924 135.742 51.2084 135.184 51.4404 134.732C51.6724 134.28 51.9924 133.938 52.4004 133.706C52.8084 133.474 53.2764 133.358 53.8044 133.358C54.1924 133.358 54.5304 133.418 54.8184 133.538C55.1104 133.658 55.3564 133.82 55.5564 134.024C55.7604 134.228 55.9244 134.462 56.0484 134.726C56.1724 134.986 56.2624 135.264 56.3184 135.56C56.3744 135.852 56.4024 136.144 56.4024 136.436V140H55.5144ZM50.8284 140V133.52H51.6264V135.116H51.7164V140H50.8284Z" fill="#ACB5BB"/>
<path d="M94.84 140V131.36H99.802V132.242H95.722V135.242H99.082V136.118H95.722V140H94.84ZM103.333 140.18C102.701 140.18 102.153 140.04 101.689 139.76C101.229 139.48 100.871 139.086 100.615 138.578C100.359 138.07 100.231 137.474 100.231 136.79C100.231 136.082 100.357 135.47 100.609 134.954C100.861 134.438 101.215 134.04 101.671 133.76C102.131 133.48 102.673 133.34 103.297 133.34C103.937 133.34 104.483 133.488 104.935 133.784C105.387 134.076 105.729 134.496 105.961 135.044C106.193 135.592 106.299 136.246 106.279 137.006H105.379V136.694C105.363 135.854 105.181 135.22 104.833 134.792C104.489 134.364 103.985 134.15 103.321 134.15C102.625 134.15 102.091 134.376 101.719 134.828C101.351 135.28 101.167 135.924 101.167 136.76C101.167 137.576 101.351 138.21 101.719 138.662C102.091 139.11 102.617 139.334 103.297 139.334C103.761 139.334 104.165 139.228 104.509 139.016C104.857 138.8 105.131 138.49 105.331 138.086L106.153 138.404C105.897 138.968 105.519 139.406 105.019 139.718C104.523 140.026 103.961 140.18 103.333 140.18ZM100.855 137.006V136.268H105.805V137.006H100.855ZM110.401 140.18C109.805 140.18 109.301 140.03 108.889 139.73C108.477 139.426 108.165 139.016 107.953 138.5C107.741 137.98 107.635 137.398 107.635 136.754C107.635 136.098 107.741 135.514 107.953 135.002C108.169 134.486 108.485 134.08 108.901 133.784C109.317 133.488 109.829 133.34 110.437 133.34C111.029 133.34 111.537 133.49 111.961 133.79C112.385 134.09 112.709 134.498 112.933 135.014C113.161 135.53 113.275 136.11 113.275 136.754C113.275 137.402 113.161 137.984 112.933 138.5C112.705 139.016 112.377 139.426 111.949 139.73C111.521 140.03 111.005 140.18 110.401 140.18ZM107.485 140V131.36H108.373V135.122H108.277V140H107.485ZM110.311 139.358C110.763 139.358 111.139 139.244 111.439 139.016C111.739 138.788 111.963 138.478 112.111 138.086C112.263 137.69 112.339 137.246 112.339 136.754C112.339 136.266 112.265 135.826 112.117 135.434C111.969 135.042 111.743 134.732 111.439 134.504C111.139 134.276 110.757 134.162 110.293 134.162C109.841 134.162 109.465 134.272 109.165 134.492C108.869 134.712 108.647 135.018 108.499 135.41C108.351 135.798 108.277 136.246 108.277 136.754C108.277 137.254 108.351 137.702 108.499 138.098C108.647 138.49 108.871 138.798 109.171 139.022C109.471 139.246 109.851 139.358 110.311 139.358Z" fill="#ACB5BB"/>
<path d="M150.84 140V131.36H151.65L155.046 138.626L158.424 131.36H159.246V139.994H158.406V133.328L155.328 140H154.758L151.686 133.328V140H150.84ZM162.664 140.18C162.176 140.18 161.766 140.092 161.434 139.916C161.106 139.74 160.86 139.506 160.696 139.214C160.532 138.922 160.45 138.604 160.45 138.26C160.45 137.908 160.52 137.608 160.66 137.36C160.804 137.108 160.998 136.902 161.242 136.742C161.49 136.582 161.776 136.46 162.1 136.376C162.428 136.296 162.79 136.226 163.186 136.166C163.586 136.102 163.976 136.048 164.356 136.004C164.74 135.956 165.076 135.91 165.364 135.866L165.052 136.058C165.064 135.418 164.94 134.944 164.68 134.636C164.42 134.328 163.968 134.174 163.324 134.174C162.88 134.174 162.504 134.274 162.196 134.474C161.892 134.674 161.678 134.99 161.554 135.422L160.696 135.17C160.844 134.59 161.142 134.14 161.59 133.82C162.038 133.5 162.62 133.34 163.336 133.34C163.928 133.34 164.43 133.452 164.842 133.676C165.258 133.896 165.552 134.216 165.724 134.636C165.804 134.824 165.856 135.034 165.88 135.266C165.904 135.498 165.916 135.734 165.916 135.974V140H165.13V138.374L165.358 138.47C165.138 139.026 164.796 139.45 164.332 139.742C163.868 140.034 163.312 140.18 162.664 140.18ZM162.766 139.418C163.178 139.418 163.538 139.344 163.846 139.196C164.154 139.048 164.402 138.846 164.59 138.59C164.778 138.33 164.9 138.038 164.956 137.714C165.004 137.506 165.03 137.278 165.034 137.03C165.038 136.778 165.04 136.59 165.04 136.466L165.376 136.64C165.076 136.68 164.75 136.72 164.398 136.76C164.05 136.8 163.706 136.846 163.366 136.898C163.03 136.95 162.726 137.012 162.454 137.084C162.27 137.136 162.092 137.21 161.92 137.306C161.748 137.398 161.606 137.522 161.494 137.678C161.386 137.834 161.332 138.028 161.332 138.26C161.332 138.448 161.378 138.63 161.47 138.806C161.566 138.982 161.718 139.128 161.926 139.244C162.138 139.36 162.418 139.418 162.766 139.418ZM167.358 140V133.52H168.15V135.08L167.994 134.876C168.066 134.684 168.16 134.508 168.276 134.348C168.392 134.184 168.518 134.05 168.654 133.946C168.822 133.798 169.018 133.686 169.242 133.61C169.466 133.53 169.692 133.484 169.92 133.472C170.148 133.456 170.356 133.472 170.544 133.52V134.348C170.308 134.288 170.05 134.274 169.77 134.306C169.49 134.338 169.232 134.45 168.996 134.642C168.78 134.81 168.618 135.012 168.51 135.248C168.402 135.48 168.33 135.728 168.294 135.992C168.258 136.252 168.24 136.51 168.24 136.766V140H167.358Z" fill="#ACB5BB"/>
<path d="M207.24 140L210.216 131.36H211.386L214.362 140H213.444L210.618 131.852H210.966L208.158 140H207.24ZM208.566 137.906V137.078H213.03V137.906H208.566ZM218.235 140.18C217.639 140.18 217.135 140.03 216.723 139.73C216.311 139.426 215.999 139.016 215.787 138.5C215.575 137.98 215.469 137.398 215.469 136.754C215.469 136.098 215.575 135.514 215.787 135.002C216.003 134.486 216.319 134.08 216.735 133.784C217.151 133.488 217.663 133.34 218.271 133.34C218.863 133.34 219.371 133.49 219.795 133.79C220.219 134.09 220.543 134.498 220.767 135.014C220.995 135.53 221.109 136.11 221.109 136.754C221.109 137.402 220.995 137.984 220.767 138.5C220.539 139.016 220.211 139.426 219.783 139.73C219.355 140.03 218.839 140.18 218.235 140.18ZM215.319 142.88V133.52H216.111V138.398H216.207V142.88H215.319ZM218.145 139.358C218.597 139.358 218.973 139.244 219.273 139.016C219.573 138.788 219.797 138.478 219.945 138.086C220.097 137.69 220.173 137.246 220.173 136.754C220.173 136.266 220.099 135.826 219.951 135.434C219.803 135.042 219.577 134.732 219.273 134.504C218.973 134.276 218.591 134.162 218.127 134.162C217.675 134.162 217.299 134.272 216.999 134.492C216.703 134.712 216.481 135.018 216.333 135.41C216.185 135.798 216.111 136.246 216.111 136.754C216.111 137.254 216.185 137.702 216.333 138.098C216.481 138.49 216.705 138.798 217.005 139.022C217.305 139.246 217.685 139.358 218.145 139.358ZM222.307 140V133.52H223.099V135.08L222.943 134.876C223.015 134.684 223.109 134.508 223.225 134.348C223.341 134.184 223.467 134.05 223.603 133.946C223.771 133.798 223.967 133.686 224.191 133.61C224.415 133.53 224.641 133.484 224.869 133.472C225.097 133.456 225.305 133.472 225.493 133.52V134.348C225.257 134.288 224.999 134.274 224.719 134.306C224.439 134.338 224.181 134.45 223.945 134.642C223.729 134.81 223.567 135.012 223.459 135.248C223.351 135.48 223.279 135.728 223.243 135.992C223.207 136.252 223.189 136.51 223.189 136.766V140H222.307Z" fill="#ACB5BB"/>
<path d="M268.84 140V131.36H269.65L273.046 138.626L276.424 131.36H277.246V139.994H276.406V133.328L273.328 140H272.758L269.686 133.328V140H268.84ZM280.664 140.18C280.176 140.18 279.766 140.092 279.434 139.916C279.106 139.74 278.86 139.506 278.696 139.214C278.532 138.922 278.45 138.604 278.45 138.26C278.45 137.908 278.52 137.608 278.66 137.36C278.804 137.108 278.998 136.902 279.242 136.742C279.49 136.582 279.776 136.46 280.1 136.376C280.428 136.296 280.79 136.226 281.186 136.166C281.586 136.102 281.976 136.048 282.356 136.004C282.74 135.956 283.076 135.91 283.364 135.866L283.052 136.058C283.064 135.418 282.94 134.944 282.68 134.636C282.42 134.328 281.968 134.174 281.324 134.174C280.88 134.174 280.504 134.274 280.196 134.474C279.892 134.674 279.678 134.99 279.554 135.422L278.696 135.17C278.844 134.59 279.142 134.14 279.59 133.82C280.038 133.5 280.62 133.34 281.336 133.34C281.928 133.34 282.43 133.452 282.842 133.676C283.258 133.896 283.552 134.216 283.724 134.636C283.804 134.824 283.856 135.034 283.88 135.266C283.904 135.498 283.916 135.734 283.916 135.974V140H283.13V138.374L283.358 138.47C283.138 139.026 282.796 139.45 282.332 139.742C281.868 140.034 281.312 140.18 280.664 140.18ZM280.766 139.418C281.178 139.418 281.538 139.344 281.846 139.196C282.154 139.048 282.402 138.846 282.59 138.59C282.778 138.33 282.9 138.038 282.956 137.714C283.004 137.506 283.03 137.278 283.034 137.03C283.038 136.778 283.04 136.59 283.04 136.466L283.376 136.64C283.076 136.68 282.75 136.72 282.398 136.76C282.05 136.8 281.706 136.846 281.366 136.898C281.03 136.95 280.726 137.012 280.454 137.084C280.27 137.136 280.092 137.21 279.92 137.306C279.748 137.398 279.606 137.522 279.494 137.678C279.386 137.834 279.332 138.028 279.332 138.26C279.332 138.448 279.378 138.63 279.47 138.806C279.566 138.982 279.718 139.128 279.926 139.244C280.138 139.36 280.418 139.418 280.766 139.418ZM285.919 142.88L287.173 139.478L287.191 140.486L284.353 133.52H285.289L287.617 139.346H287.233L289.381 133.52H290.281L286.801 142.88H285.919Z" fill="#ACB5BB"/>
<path d="M330.316 140.174C329.74 140.174 329.246 140.014 328.834 139.694C328.422 139.374 328.144 138.946 328 138.41L328.882 138.2C328.954 138.516 329.12 138.784 329.38 139.004C329.644 139.22 329.954 139.328 330.31 139.328C330.534 139.328 330.76 139.274 330.988 139.166C331.22 139.058 331.402 138.88 331.534 138.632C331.622 138.46 331.672 138.274 331.684 138.074C331.7 137.87 331.708 137.626 331.708 137.342V131.36H332.596V137.342C332.596 137.582 332.594 137.8 332.59 137.996C332.586 138.188 332.564 138.374 332.524 138.554C332.488 138.73 332.418 138.908 332.314 139.088C332.106 139.452 331.826 139.724 331.474 139.904C331.126 140.084 330.74 140.174 330.316 140.174ZM336.764 140.162C336.376 140.162 336.036 140.102 335.744 139.982C335.456 139.862 335.21 139.7 335.006 139.496C334.806 139.292 334.644 139.06 334.52 138.8C334.396 138.536 334.306 138.258 334.25 137.966C334.194 137.67 334.166 137.376 334.166 137.084V133.52H335.054V136.826C335.054 137.182 335.088 137.512 335.156 137.816C335.224 138.12 335.332 138.386 335.48 138.614C335.632 138.838 335.826 139.012 336.062 139.136C336.302 139.26 336.592 139.322 336.932 139.322C337.244 139.322 337.518 139.268 337.754 139.16C337.994 139.052 338.194 138.898 338.354 138.698C338.518 138.494 338.642 138.248 338.726 137.96C338.81 137.668 338.852 137.34 338.852 136.976L339.476 137.114C339.476 137.778 339.36 138.336 339.128 138.788C338.896 139.24 338.576 139.582 338.168 139.814C337.76 140.046 337.292 140.162 336.764 140.162ZM338.942 140V138.404H338.852V133.52H339.734V140H338.942ZM345.971 140V136.694C345.971 136.334 345.937 136.004 345.869 135.704C345.801 135.4 345.691 135.136 345.539 134.912C345.391 134.684 345.197 134.508 344.957 134.384C344.721 134.26 344.433 134.198 344.093 134.198C343.781 134.198 343.505 134.252 343.265 134.36C343.029 134.468 342.829 134.624 342.665 134.828C342.505 135.028 342.383 135.272 342.299 135.56C342.215 135.848 342.173 136.176 342.173 136.544L341.549 136.406C341.549 135.742 341.665 135.184 341.897 134.732C342.129 134.28 342.449 133.938 342.857 133.706C343.265 133.474 343.733 133.358 344.261 133.358C344.649 133.358 344.987 133.418 345.275 133.538C345.567 133.658 345.813 133.82 346.013 134.024C346.217 134.228 346.381 134.462 346.505 134.726C346.629 134.986 346.719 135.264 346.775 135.56C346.831 135.852 346.859 136.144 346.859 136.436V140H345.971ZM341.285 140V133.52H342.083V135.116H342.173V140H341.285Z" fill="#ACB5BB"/>
<path d="M392.316 140.174C391.74 140.174 391.246 140.014 390.834 139.694C390.422 139.374 390.144 138.946 390 138.41L390.882 138.2C390.954 138.516 391.12 138.784 391.38 139.004C391.644 139.22 391.954 139.328 392.31 139.328C392.534 139.328 392.76 139.274 392.988 139.166C393.22 139.058 393.402 138.88 393.534 138.632C393.622 138.46 393.672 138.274 393.684 138.074C393.7 137.87 393.708 137.626 393.708 137.342V131.36H394.596V137.342C394.596 137.582 394.594 137.8 394.59 137.996C394.586 138.188 394.564 138.374 394.524 138.554C394.488 138.73 394.418 138.908 394.314 139.088C394.106 139.452 393.826 139.724 393.474 139.904C393.126 140.084 392.74 140.174 392.316 140.174ZM398.764 140.162C398.376 140.162 398.036 140.102 397.744 139.982C397.456 139.862 397.21 139.7 397.006 139.496C396.806 139.292 396.644 139.06 396.52 138.8C396.396 138.536 396.306 138.258 396.25 137.966C396.194 137.67 396.166 137.376 396.166 137.084V133.52H397.054V136.826C397.054 137.182 397.088 137.512 397.156 137.816C397.224 138.12 397.332 138.386 397.48 138.614C397.632 138.838 397.826 139.012 398.062 139.136C398.302 139.26 398.592 139.322 398.932 139.322C399.244 139.322 399.518 139.268 399.754 139.16C399.994 139.052 400.194 138.898 400.354 138.698C400.518 138.494 400.642 138.248 400.726 137.96C400.81 137.668 400.852 137.34 400.852 136.976L401.476 137.114C401.476 137.778 401.36 138.336 401.128 138.788C400.896 139.24 400.576 139.582 400.168 139.814C399.76 140.046 399.292 140.162 398.764 140.162ZM400.942 140V138.404H400.852V133.52H401.734V140H400.942ZM403.411 140V131.18H404.293V140H403.411Z" fill="#ACB5BB"/>
<path d="M448.24 140L451.216 131.36H452.386L455.362 140H454.444L451.618 131.852H451.966L449.158 140H448.24ZM449.566 137.906V137.078H454.03V137.906H449.566ZM458.803 140.162C458.415 140.162 458.075 140.102 457.783 139.982C457.495 139.862 457.249 139.7 457.045 139.496C456.845 139.292 456.683 139.06 456.559 138.8C456.435 138.536 456.345 138.258 456.289 137.966C456.233 137.67 456.205 137.376 456.205 137.084V133.52H457.093V136.826C457.093 137.182 457.127 137.512 457.195 137.816C457.263 138.12 457.371 138.386 457.519 138.614C457.671 138.838 457.865 139.012 458.101 139.136C458.341 139.26 458.631 139.322 458.971 139.322C459.283 139.322 459.557 139.268 459.793 139.16C460.033 139.052 460.233 138.898 460.393 138.698C460.557 138.494 460.681 138.248 460.765 137.96C460.849 137.668 460.891 137.34 460.891 136.976L461.515 137.114C461.515 137.778 461.399 138.336 461.167 138.788C460.935 139.24 460.615 139.582 460.207 139.814C459.799 140.046 459.331 140.162 458.803 140.162ZM460.981 140V138.404H460.891V133.52H461.773V140H460.981ZM465.904 143.06C465.572 143.06 465.244 143.01 464.92 142.91C464.6 142.814 464.304 142.66 464.032 142.448C463.76 142.24 463.532 141.968 463.348 141.632L464.146 141.188C464.326 141.548 464.578 141.806 464.902 141.962C465.23 142.122 465.564 142.202 465.904 142.202C466.372 142.202 466.75 142.114 467.038 141.938C467.33 141.766 467.542 141.51 467.674 141.17C467.806 140.83 467.87 140.406 467.866 139.898V138.17H467.968V133.52H468.754V139.91C468.754 140.094 468.748 140.27 468.736 140.438C468.728 140.61 468.71 140.778 468.682 140.942C468.606 141.426 468.448 141.824 468.208 142.136C467.972 142.448 467.66 142.68 467.272 142.832C466.888 142.984 466.432 143.06 465.904 143.06ZM465.844 140.18C465.24 140.18 464.724 140.03 464.296 139.73C463.868 139.426 463.54 139.016 463.312 138.5C463.084 137.984 462.97 137.402 462.97 136.754C462.97 136.11 463.082 135.53 463.306 135.014C463.534 134.498 463.86 134.09 464.284 133.79C464.708 133.49 465.216 133.34 465.808 133.34C466.416 133.34 466.928 133.488 467.344 133.784C467.76 134.08 468.074 134.486 468.286 135.002C468.502 135.514 468.61 136.098 468.61 136.754C468.61 137.398 468.504 137.98 468.292 138.5C468.08 139.016 467.768 139.426 467.356 139.73C466.944 140.03 466.44 140.18 465.844 140.18ZM465.934 139.358C466.394 139.358 466.774 139.246 467.074 139.022C467.374 138.798 467.598 138.49 467.746 138.098C467.894 137.702 467.968 137.254 467.968 136.754C467.968 136.246 467.894 135.798 467.746 135.41C467.598 135.018 467.374 134.712 467.074 134.492C466.778 134.272 466.404 134.162 465.952 134.162C465.488 134.162 465.104 134.276 464.8 134.504C464.496 134.732 464.27 135.042 464.122 135.434C463.978 135.826 463.906 136.266 463.906 136.754C463.906 137.246 463.98 137.69 464.128 138.086C464.28 138.478 464.506 138.788 464.806 139.016C465.106 139.244 465.482 139.358 465.934 139.358Z" fill="#ACB5BB"/>
<path d="M510.84 140.18C510.236 140.18 509.692 140.08 509.208 139.88C508.728 139.676 508.33 139.388 508.014 139.016C507.702 138.644 507.498 138.202 507.402 137.69L508.302 137.54C508.446 138.1 508.75 138.54 509.214 138.86C509.678 139.176 510.232 139.334 510.876 139.334C511.3 139.334 511.68 139.268 512.016 139.136C512.352 139 512.616 138.808 512.808 138.56C513 138.312 513.096 138.018 513.096 137.678C513.096 137.454 513.056 137.264 512.976 137.108C512.896 136.948 512.79 136.816 512.658 136.712C512.526 136.608 512.382 136.522 512.226 136.454C512.07 136.382 511.918 136.324 511.77 136.28L509.58 135.626C509.316 135.55 509.072 135.454 508.848 135.338C508.624 135.218 508.428 135.076 508.26 134.912C508.096 134.744 507.968 134.548 507.876 134.324C507.784 134.1 507.738 133.844 507.738 133.556C507.738 133.068 507.866 132.646 508.122 132.29C508.378 131.934 508.728 131.66 509.172 131.468C509.616 131.276 510.122 131.182 510.69 131.186C511.266 131.186 511.78 131.288 512.232 131.492C512.688 131.696 513.064 131.988 513.36 132.368C513.656 132.744 513.852 133.19 513.948 133.706L513.024 133.874C512.964 133.498 512.826 133.172 512.61 132.896C512.394 132.62 512.118 132.408 511.782 132.26C511.45 132.108 511.084 132.03 510.684 132.026C510.296 132.026 509.95 132.092 509.646 132.224C509.346 132.352 509.108 132.528 508.932 132.752C508.756 132.976 508.668 133.232 508.668 133.52C508.668 133.812 508.748 134.046 508.908 134.222C509.072 134.398 509.272 134.536 509.508 134.636C509.748 134.736 509.98 134.818 510.204 134.882L511.896 135.38C512.072 135.428 512.278 135.498 512.514 135.59C512.754 135.678 512.986 135.806 513.21 135.974C513.438 136.138 513.626 136.354 513.774 136.622C513.922 136.89 513.996 137.23 513.996 137.642C513.996 138.042 513.916 138.4 513.756 138.716C513.6 139.032 513.378 139.298 513.09 139.514C512.806 139.73 512.472 139.894 512.088 140.006C511.708 140.122 511.292 140.18 510.84 140.18ZM517.857 140.18C517.225 140.18 516.677 140.04 516.213 139.76C515.753 139.48 515.395 139.086 515.139 138.578C514.883 138.07 514.755 137.474 514.755 136.79C514.755 136.082 514.881 135.47 515.133 134.954C515.385 134.438 515.739 134.04 516.195 133.76C516.655 133.48 517.197 133.34 517.821 133.34C518.461 133.34 519.007 133.488 519.459 133.784C519.911 134.076 520.253 134.496 520.485 135.044C520.717 135.592 520.823 136.246 520.803 137.006H519.903V136.694C519.887 135.854 519.705 135.22 519.357 134.792C519.013 134.364 518.509 134.15 517.845 134.15C517.149 134.15 516.615 134.376 516.243 134.828C515.875 135.28 515.691 135.924 515.691 136.76C515.691 137.576 515.875 138.21 516.243 138.662C516.615 139.11 517.141 139.334 517.821 139.334C518.285 139.334 518.689 139.228 519.033 139.016C519.381 138.8 519.655 138.49 519.855 138.086L520.677 138.404C520.421 138.968 520.043 139.406 519.543 139.718C519.047 140.026 518.485 140.18 517.857 140.18ZM515.379 137.006V136.268H520.329V137.006H515.379ZM524.748 140.18C524.152 140.18 523.648 140.03 523.236 139.73C522.824 139.426 522.512 139.016 522.3 138.5C522.088 137.98 521.982 137.398 521.982 136.754C521.982 136.098 522.088 135.514 522.3 135.002C522.516 134.486 522.832 134.08 523.248 133.784C523.664 133.488 524.176 133.34 524.784 133.34C525.376 133.34 525.884 133.49 526.308 133.79C526.732 134.09 527.056 134.498 527.28 135.014C527.508 135.53 527.622 136.11 527.622 136.754C527.622 137.402 527.508 137.984 527.28 138.5C527.052 139.016 526.724 139.426 526.296 139.73C525.868 140.03 525.352 140.18 524.748 140.18ZM521.832 142.88V133.52H522.624V138.398H522.72V142.88H521.832ZM524.658 139.358C525.11 139.358 525.486 139.244 525.786 139.016C526.086 138.788 526.31 138.478 526.458 138.086C526.61 137.69 526.686 137.246 526.686 136.754C526.686 136.266 526.612 135.826 526.464 135.434C526.316 135.042 526.09 134.732 525.786 134.504C525.486 134.276 525.104 134.162 524.64 134.162C524.188 134.162 523.812 134.272 523.512 134.492C523.216 134.712 522.994 135.018 522.846 135.41C522.698 135.798 522.624 136.246 522.624 136.754C522.624 137.254 522.698 137.702 522.846 138.098C522.994 138.49 523.218 138.798 523.518 139.022C523.818 139.246 524.198 139.358 524.658 139.358Z" fill="#ACB5BB"/>
<path d="M573.338 140.18C572.478 140.18 571.752 139.99 571.16 139.61C570.568 139.226 570.12 138.696 569.816 138.02C569.512 137.344 569.36 136.564 569.36 135.68C569.36 134.796 569.512 134.016 569.816 133.34C570.12 132.664 570.568 132.136 571.16 131.756C571.752 131.372 572.478 131.18 573.338 131.18C574.202 131.18 574.928 131.372 575.516 131.756C576.108 132.136 576.556 132.664 576.86 133.34C577.168 134.016 577.322 134.796 577.322 135.68C577.322 136.564 577.168 137.344 576.86 138.02C576.556 138.696 576.108 139.226 575.516 139.61C574.928 139.99 574.202 140.18 573.338 140.18ZM573.338 139.334C574.014 139.334 574.578 139.18 575.03 138.872C575.482 138.564 575.82 138.136 576.044 137.588C576.272 137.036 576.386 136.4 576.386 135.68C576.386 134.96 576.272 134.326 576.044 133.778C575.82 133.23 575.482 132.802 575.03 132.494C574.578 132.186 574.014 132.03 573.338 132.026C572.662 132.026 572.1 132.18 571.652 132.488C571.204 132.796 570.866 133.226 570.638 133.778C570.414 134.326 570.3 134.96 570.296 135.68C570.292 136.4 570.402 137.034 570.626 137.582C570.854 138.126 571.194 138.554 571.646 138.866C572.098 139.174 572.662 139.33 573.338 139.334ZM581.092 140.18C580.44 140.18 579.888 140.034 579.436 139.742C578.984 139.45 578.64 139.048 578.404 138.536C578.172 138.02 578.052 137.428 578.044 136.76C578.052 136.08 578.176 135.484 578.416 134.972C578.656 134.456 579.002 134.056 579.454 133.772C579.906 133.484 580.454 133.34 581.098 133.34C581.754 133.34 582.324 133.5 582.808 133.82C583.296 134.14 583.63 134.578 583.81 135.134L582.946 135.41C582.794 135.022 582.552 134.722 582.22 134.51C581.892 134.294 581.516 134.186 581.092 134.186C580.616 134.186 580.222 134.296 579.91 134.516C579.598 134.732 579.366 135.034 579.214 135.422C579.062 135.81 578.984 136.256 578.98 136.76C578.988 137.536 579.168 138.16 579.52 138.632C579.872 139.1 580.396 139.334 581.092 139.334C581.532 139.334 581.906 139.234 582.214 139.034C582.526 138.83 582.762 138.534 582.922 138.146L583.81 138.41C583.57 138.986 583.218 139.426 582.754 139.73C582.29 140.03 581.736 140.18 581.092 140.18ZM588.456 140C588.092 140.076 587.732 140.106 587.376 140.09C587.024 140.074 586.708 139.998 586.428 139.862C586.152 139.726 585.942 139.514 585.798 139.226C585.682 138.986 585.618 138.744 585.606 138.5C585.598 138.252 585.594 137.97 585.594 137.654V131.72H586.47V137.618C586.47 137.89 586.472 138.118 586.476 138.302C586.484 138.482 586.526 138.642 586.602 138.782C586.746 139.05 586.974 139.21 587.286 139.262C587.602 139.314 587.992 139.302 588.456 139.226V140ZM584.208 134.276V133.52H588.456V134.276H584.208Z" fill="#ACB5BB"/>
<path d="M628.84 140V131.36H629.728L634.486 138.44V131.36H635.374V140H634.486L629.728 132.914V140H628.84ZM639.641 140.18C638.997 140.18 638.447 140.034 637.991 139.742C637.535 139.45 637.185 139.046 636.941 138.53C636.697 138.014 636.575 137.422 636.575 136.754C636.575 136.074 636.699 135.478 636.947 134.966C637.195 134.454 637.547 134.056 638.003 133.772C638.463 133.484 639.009 133.34 639.641 133.34C640.289 133.34 640.841 133.486 641.297 133.778C641.757 134.066 642.107 134.468 642.347 134.984C642.591 135.496 642.713 136.086 642.713 136.754C642.713 137.434 642.591 138.032 642.347 138.548C642.103 139.06 641.751 139.46 641.291 139.748C640.831 140.036 640.281 140.18 639.641 140.18ZM639.641 139.334C640.361 139.334 640.897 139.096 641.249 138.62C641.601 138.14 641.777 137.518 641.777 136.754C641.777 135.97 641.599 135.346 641.243 134.882C640.891 134.418 640.357 134.186 639.641 134.186C639.157 134.186 638.757 134.296 638.441 134.516C638.129 134.732 637.895 135.034 637.739 135.422C637.587 135.806 637.511 136.25 637.511 136.754C637.511 137.534 637.691 138.16 638.051 138.632C638.411 139.1 638.941 139.334 639.641 139.334ZM645.434 140L643.082 133.52H643.976L645.89 138.848L647.792 133.52H648.698L646.346 140H645.434Z" fill="#ACB5BB"/>
<path d="M687.84 140V131.36H690.462C690.554 131.36 690.71 131.362 690.93 131.366C691.154 131.37 691.368 131.386 691.572 131.414C692.228 131.506 692.776 131.75 693.216 132.146C693.656 132.542 693.986 133.046 694.206 133.658C694.426 134.27 694.536 134.944 694.536 135.68C694.536 136.416 694.426 137.09 694.206 137.702C693.986 138.314 693.656 138.818 693.216 139.214C692.776 139.61 692.228 139.854 691.572 139.946C691.372 139.97 691.158 139.986 690.93 139.994C690.702 139.998 690.546 140 690.462 140H687.84ZM688.752 139.154H690.462C690.626 139.154 690.802 139.15 690.99 139.142C691.182 139.13 691.346 139.11 691.482 139.082C691.986 138.994 692.392 138.79 692.7 138.47C693.012 138.15 693.24 137.75 693.384 137.27C693.528 136.786 693.6 136.256 693.6 135.68C693.6 135.1 693.528 134.568 693.384 134.084C693.24 133.6 693.012 133.2 692.7 132.884C692.388 132.568 691.982 132.366 691.482 132.278C691.346 132.25 691.18 132.232 690.984 132.224C690.792 132.212 690.618 132.206 690.462 132.206H688.752V139.154ZM698.525 140.18C697.893 140.18 697.345 140.04 696.881 139.76C696.421 139.48 696.063 139.086 695.807 138.578C695.551 138.07 695.423 137.474 695.423 136.79C695.423 136.082 695.549 135.47 695.801 134.954C696.053 134.438 696.407 134.04 696.863 133.76C697.323 133.48 697.865 133.34 698.489 133.34C699.129 133.34 699.675 133.488 700.127 133.784C700.579 134.076 700.921 134.496 701.153 135.044C701.385 135.592 701.491 136.246 701.471 137.006H700.571V136.694C700.555 135.854 700.373 135.22 700.025 134.792C699.681 134.364 699.177 134.15 698.513 134.15C697.817 134.15 697.283 134.376 696.911 134.828C696.543 135.28 696.359 135.924 696.359 136.76C696.359 137.576 696.543 138.21 696.911 138.662C697.283 139.11 697.809 139.334 698.489 139.334C698.953 139.334 699.357 139.228 699.701 139.016C700.049 138.8 700.323 138.49 700.523 138.086L701.345 138.404C701.089 138.968 700.711 139.406 700.211 139.718C699.715 140.026 699.153 140.18 698.525 140.18ZM696.047 137.006V136.268H700.997V137.006H696.047ZM705.37 140.18C704.718 140.18 704.166 140.034 703.714 139.742C703.262 139.45 702.918 139.048 702.682 138.536C702.45 138.02 702.33 137.428 702.322 136.76C702.33 136.08 702.454 135.484 702.694 134.972C702.934 134.456 703.28 134.056 703.732 133.772C704.184 133.484 704.732 133.34 705.376 133.34C706.032 133.34 706.602 133.5 707.086 133.82C707.574 134.14 707.908 134.578 708.088 135.134L707.224 135.41C707.072 135.022 706.83 134.722 706.498 134.51C706.17 134.294 705.794 134.186 705.37 134.186C704.894 134.186 704.5 134.296 704.188 134.516C703.876 134.732 703.644 135.034 703.492 135.422C703.34 135.81 703.262 136.256 703.258 136.76C703.266 137.536 703.446 138.16 703.798 138.632C704.15 139.1 704.674 139.334 705.37 139.334C705.81 139.334 706.184 139.234 706.492 139.034C706.804 138.83 707.04 138.534 707.2 138.146L708.088 138.41C707.848 138.986 707.496 139.426 707.032 139.73C706.568 140.03 706.014 140.18 705.37 140.18Z" fill="#ACB5BB"/>
<path d="M750.316 140.174C749.74 140.174 749.246 140.014 748.834 139.694C748.422 139.374 748.144 138.946 748 138.41L748.882 138.2C748.954 138.516 749.12 138.784 749.38 139.004C749.644 139.22 749.954 139.328 750.31 139.328C750.534 139.328 750.76 139.274 750.988 139.166C751.22 139.058 751.402 138.88 751.534 138.632C751.622 138.46 751.672 138.274 751.684 138.074C751.7 137.87 751.708 137.626 751.708 137.342V131.36H752.596V137.342C752.596 137.582 752.594 137.8 752.59 137.996C752.586 138.188 752.564 138.374 752.524 138.554C752.488 138.73 752.418 138.908 752.314 139.088C752.106 139.452 751.826 139.724 751.474 139.904C751.126 140.084 750.74 140.174 750.316 140.174ZM756.14 140.18C755.652 140.18 755.242 140.092 754.91 139.916C754.582 139.74 754.336 139.506 754.172 139.214C754.008 138.922 753.926 138.604 753.926 138.26C753.926 137.908 753.996 137.608 754.136 137.36C754.28 137.108 754.474 136.902 754.718 136.742C754.966 136.582 755.252 136.46 755.576 136.376C755.904 136.296 756.266 136.226 756.662 136.166C757.062 136.102 757.452 136.048 757.832 136.004C758.216 135.956 758.552 135.91 758.84 135.866L758.528 136.058C758.54 135.418 758.416 134.944 758.156 134.636C757.896 134.328 757.444 134.174 756.8 134.174C756.356 134.174 755.98 134.274 755.672 134.474C755.368 134.674 755.154 134.99 755.03 135.422L754.172 135.17C754.32 134.59 754.618 134.14 755.066 133.82C755.514 133.5 756.096 133.34 756.812 133.34C757.404 133.34 757.906 133.452 758.318 133.676C758.734 133.896 759.028 134.216 759.2 134.636C759.28 134.824 759.332 135.034 759.356 135.266C759.38 135.498 759.392 135.734 759.392 135.974V140H758.606V138.374L758.834 138.47C758.614 139.026 758.272 139.45 757.808 139.742C757.344 140.034 756.788 140.18 756.14 140.18ZM756.242 139.418C756.654 139.418 757.014 139.344 757.322 139.196C757.63 139.048 757.878 138.846 758.066 138.59C758.254 138.33 758.376 138.038 758.432 137.714C758.48 137.506 758.506 137.278 758.51 137.03C758.514 136.778 758.516 136.59 758.516 136.466L758.852 136.64C758.552 136.68 758.226 136.72 757.874 136.76C757.526 136.8 757.182 136.846 756.842 136.898C756.506 136.95 756.202 137.012 755.93 137.084C755.746 137.136 755.568 137.21 755.396 137.306C755.224 137.398 755.082 137.522 754.97 137.678C754.862 137.834 754.808 138.028 754.808 138.26C754.808 138.448 754.854 138.63 754.946 138.806C755.042 138.982 755.194 139.128 755.402 139.244C755.614 139.36 755.894 139.418 756.242 139.418ZM765.514 140V136.694C765.514 136.334 765.48 136.004 765.412 135.704C765.344 135.4 765.234 135.136 765.082 134.912C764.934 134.684 764.74 134.508 764.5 134.384C764.264 134.26 763.976 134.198 763.636 134.198C763.324 134.198 763.048 134.252 762.808 134.36C762.572 134.468 762.372 134.624 762.208 134.828C762.048 135.028 761.926 135.272 761.842 135.56C761.758 135.848 761.716 136.176 761.716 136.544L761.092 136.406C761.092 135.742 761.208 135.184 761.44 134.732C761.672 134.28 761.992 133.938 762.4 133.706C762.808 133.474 763.276 133.358 763.804 133.358C764.192 133.358 764.53 133.418 764.818 133.538C765.11 133.658 765.356 133.82 765.556 134.024C765.76 134.228 765.924 134.462 766.048 134.726C766.172 134.986 766.262 135.264 766.318 135.56C766.374 135.852 766.402 136.144 766.402 136.436V140H765.514ZM760.828 140V133.52H761.626V135.116H761.716V140H760.828Z" fill="#ACB5BB"/>
<path d="M812.316 140.174C811.74 140.174 811.246 140.014 810.834 139.694C810.422 139.374 810.144 138.946 810 138.41L810.882 138.2C810.954 138.516 811.12 138.784 811.38 139.004C811.644 139.22 811.954 139.328 812.31 139.328C812.534 139.328 812.76 139.274 812.988 139.166C813.22 139.058 813.402 138.88 813.534 138.632C813.622 138.46 813.672 138.274 813.684 138.074C813.7 137.87 813.708 137.626 813.708 137.342V131.36H814.596V137.342C814.596 137.582 814.594 137.8 814.59 137.996C814.586 138.188 814.564 138.374 814.524 138.554C814.488 138.73 814.418 138.908 814.314 139.088C814.106 139.452 813.826 139.724 813.474 139.904C813.126 140.084 812.74 140.174 812.316 140.174ZM818.764 140.162C818.376 140.162 818.036 140.102 817.744 139.982C817.456 139.862 817.21 139.7 817.006 139.496C816.806 139.292 816.644 139.06 816.52 138.8C816.396 138.536 816.306 138.258 816.25 137.966C816.194 137.67 816.166 137.376 816.166 137.084V133.52H817.054V136.826C817.054 137.182 817.088 137.512 817.156 137.816C817.224 138.12 817.332 138.386 817.48 138.614C817.632 138.838 817.826 139.012 818.062 139.136C818.302 139.26 818.592 139.322 818.932 139.322C819.244 139.322 819.518 139.268 819.754 139.16C819.994 139.052 820.194 138.898 820.354 138.698C820.518 138.494 820.642 138.248 820.726 137.96C820.81 137.668 820.852 137.34 820.852 136.976L821.476 137.114C821.476 137.778 821.36 138.336 821.128 138.788C820.896 139.24 820.576 139.582 820.168 139.814C819.76 140.046 819.292 140.162 818.764 140.162ZM820.942 140V138.404H820.852V133.52H821.734V140H820.942ZM823.411 140V131.18H824.293V140H823.411Z" fill="#ACB5BB"/>
<path d="M868.24 140L871.216 131.36H872.386L875.362 140H874.444L871.618 131.852H871.966L869.158 140H868.24ZM869.566 137.906V137.078H874.03V137.906H869.566ZM878.803 140.162C878.415 140.162 878.075 140.102 877.783 139.982C877.495 139.862 877.249 139.7 877.045 139.496C876.845 139.292 876.683 139.06 876.559 138.8C876.435 138.536 876.345 138.258 876.289 137.966C876.233 137.67 876.205 137.376 876.205 137.084V133.52H877.093V136.826C877.093 137.182 877.127 137.512 877.195 137.816C877.263 138.12 877.371 138.386 877.519 138.614C877.671 138.838 877.865 139.012 878.101 139.136C878.341 139.26 878.631 139.322 878.971 139.322C879.283 139.322 879.557 139.268 879.793 139.16C880.033 139.052 880.233 138.898 880.393 138.698C880.557 138.494 880.681 138.248 880.765 137.96C880.849 137.668 880.891 137.34 880.891 136.976L881.515 137.114C881.515 137.778 881.399 138.336 881.167 138.788C880.935 139.24 880.615 139.582 880.207 139.814C879.799 140.046 879.331 140.162 878.803 140.162ZM880.981 140V138.404H880.891V133.52H881.773V140H880.981ZM885.904 143.06C885.572 143.06 885.244 143.01 884.92 142.91C884.6 142.814 884.304 142.66 884.032 142.448C883.76 142.24 883.532 141.968 883.348 141.632L884.146 141.188C884.326 141.548 884.578 141.806 884.902 141.962C885.23 142.122 885.564 142.202 885.904 142.202C886.372 142.202 886.75 142.114 887.038 141.938C887.33 141.766 887.542 141.51 887.674 141.17C887.806 140.83 887.87 140.406 887.866 139.898V138.17H887.968V133.52H888.754V139.91C888.754 140.094 888.748 140.27 888.736 140.438C888.728 140.61 888.71 140.778 888.682 140.942C888.606 141.426 888.448 141.824 888.208 142.136C887.972 142.448 887.66 142.68 887.272 142.832C886.888 142.984 886.432 143.06 885.904 143.06ZM885.844 140.18C885.24 140.18 884.724 140.03 884.296 139.73C883.868 139.426 883.54 139.016 883.312 138.5C883.084 137.984 882.97 137.402 882.97 136.754C882.97 136.11 883.082 135.53 883.306 135.014C883.534 134.498 883.86 134.09 884.284 133.79C884.708 133.49 885.216 133.34 885.808 133.34C886.416 133.34 886.928 133.488 887.344 133.784C887.76 134.08 888.074 134.486 888.286 135.002C888.502 135.514 888.61 136.098 888.61 136.754C888.61 137.398 888.504 137.98 888.292 138.5C888.08 139.016 887.768 139.426 887.356 139.73C886.944 140.03 886.44 140.18 885.844 140.18ZM885.934 139.358C886.394 139.358 886.774 139.246 887.074 139.022C887.374 138.798 887.598 138.49 887.746 138.098C887.894 137.702 887.968 137.254 887.968 136.754C887.968 136.246 887.894 135.798 887.746 135.41C887.598 135.018 887.374 134.712 887.074 134.492C886.778 134.272 886.404 134.162 885.952 134.162C885.488 134.162 885.104 134.276 884.8 134.504C884.496 134.732 884.27 135.042 884.122 135.434C883.978 135.826 883.906 136.266 883.906 136.754C883.906 137.246 883.98 137.69 884.128 138.086C884.28 138.478 884.506 138.788 884.806 139.016C885.106 139.244 885.482 139.358 885.934 139.358Z" fill="#ACB5BB"/>
<path d="M930.84 140.18C930.236 140.18 929.692 140.08 929.208 139.88C928.728 139.676 928.33 139.388 928.014 139.016C927.702 138.644 927.498 138.202 927.402 137.69L928.302 137.54C928.446 138.1 928.75 138.54 929.214 138.86C929.678 139.176 930.232 139.334 930.876 139.334C931.3 139.334 931.68 139.268 932.016 139.136C932.352 139 932.616 138.808 932.808 138.56C933 138.312 933.096 138.018 933.096 137.678C933.096 137.454 933.056 137.264 932.976 137.108C932.896 136.948 932.79 136.816 932.658 136.712C932.526 136.608 932.382 136.522 932.226 136.454C932.07 136.382 931.918 136.324 931.77 136.28L929.58 135.626C929.316 135.55 929.072 135.454 928.848 135.338C928.624 135.218 928.428 135.076 928.26 134.912C928.096 134.744 927.968 134.548 927.876 134.324C927.784 134.1 927.738 133.844 927.738 133.556C927.738 133.068 927.866 132.646 928.122 132.29C928.378 131.934 928.728 131.66 929.172 131.468C929.616 131.276 930.122 131.182 930.69 131.186C931.266 131.186 931.78 131.288 932.232 131.492C932.688 131.696 933.064 131.988 933.36 132.368C933.656 132.744 933.852 133.19 933.948 133.706L933.024 133.874C932.964 133.498 932.826 133.172 932.61 132.896C932.394 132.62 932.118 132.408 931.782 132.26C931.45 132.108 931.084 132.03 930.684 132.026C930.296 132.026 929.95 132.092 929.646 132.224C929.346 132.352 929.108 132.528 928.932 132.752C928.756 132.976 928.668 133.232 928.668 133.52C928.668 133.812 928.748 134.046 928.908 134.222C929.072 134.398 929.272 134.536 929.508 134.636C929.748 134.736 929.98 134.818 930.204 134.882L931.896 135.38C932.072 135.428 932.278 135.498 932.514 135.59C932.754 135.678 932.986 135.806 933.21 135.974C933.438 136.138 933.626 136.354 933.774 136.622C933.922 136.89 933.996 137.23 933.996 137.642C933.996 138.042 933.916 138.4 933.756 138.716C933.6 139.032 933.378 139.298 933.09 139.514C932.806 139.73 932.472 139.894 932.088 140.006C931.708 140.122 931.292 140.18 930.84 140.18ZM937.857 140.18C937.225 140.18 936.677 140.04 936.213 139.76C935.753 139.48 935.395 139.086 935.139 138.578C934.883 138.07 934.755 137.474 934.755 136.79C934.755 136.082 934.881 135.47 935.133 134.954C935.385 134.438 935.739 134.04 936.195 133.76C936.655 133.48 937.197 133.34 937.821 133.34C938.461 133.34 939.007 133.488 939.459 133.784C939.911 134.076 940.253 134.496 940.485 135.044C940.717 135.592 940.823 136.246 940.803 137.006H939.903V136.694C939.887 135.854 939.705 135.22 939.357 134.792C939.013 134.364 938.509 134.15 937.845 134.15C937.149 134.15 936.615 134.376 936.243 134.828C935.875 135.28 935.691 135.924 935.691 136.76C935.691 137.576 935.875 138.21 936.243 138.662C936.615 139.11 937.141 139.334 937.821 139.334C938.285 139.334 938.689 139.228 939.033 139.016C939.381 138.8 939.655 138.49 939.855 138.086L940.677 138.404C940.421 138.968 940.043 139.406 939.543 139.718C939.047 140.026 938.485 140.18 937.857 140.18ZM935.379 137.006V136.268H940.329V137.006H935.379ZM944.748 140.18C944.152 140.18 943.648 140.03 943.236 139.73C942.824 139.426 942.512 139.016 942.3 138.5C942.088 137.98 941.982 137.398 941.982 136.754C941.982 136.098 942.088 135.514 942.3 135.002C942.516 134.486 942.832 134.08 943.248 133.784C943.664 133.488 944.176 133.34 944.784 133.34C945.376 133.34 945.884 133.49 946.308 133.79C946.732 134.09 947.056 134.498 947.28 135.014C947.508 135.53 947.622 136.11 947.622 136.754C947.622 137.402 947.508 137.984 947.28 138.5C947.052 139.016 946.724 139.426 946.296 139.73C945.868 140.03 945.352 140.18 944.748 140.18ZM941.832 142.88V133.52H942.624V138.398H942.72V142.88H941.832ZM944.658 139.358C945.11 139.358 945.486 139.244 945.786 139.016C946.086 138.788 946.31 138.478 946.458 138.086C946.61 137.69 946.686 137.246 946.686 136.754C946.686 136.266 946.612 135.826 946.464 135.434C946.316 135.042 946.09 134.732 945.786 134.504C945.486 134.276 945.104 134.162 944.64 134.162C944.188 134.162 943.812 134.272 943.512 134.492C943.216 134.712 942.994 135.018 942.846 135.41C942.698 135.798 942.624 136.246 942.624 136.754C942.624 137.254 942.698 137.702 942.846 138.098C942.994 138.49 943.218 138.798 943.518 139.022C943.818 139.246 944.198 139.358 944.658 139.358Z" fill="#ACB5BB"/>
<path d="M991.338 140.18C990.478 140.18 989.752 139.99 989.16 139.61C988.568 139.226 988.12 138.696 987.816 138.02C987.512 137.344 987.36 136.564 987.36 135.68C987.36 134.796 987.512 134.016 987.816 133.34C988.12 132.664 988.568 132.136 989.16 131.756C989.752 131.372 990.478 131.18 991.338 131.18C992.202 131.18 992.928 131.372 993.516 131.756C994.108 132.136 994.556 132.664 994.86 133.34C995.168 134.016 995.322 134.796 995.322 135.68C995.322 136.564 995.168 137.344 994.86 138.02C994.556 138.696 994.108 139.226 993.516 139.61C992.928 139.99 992.202 140.18 991.338 140.18ZM991.338 139.334C992.014 139.334 992.578 139.18 993.03 138.872C993.482 138.564 993.82 138.136 994.044 137.588C994.272 137.036 994.386 136.4 994.386 135.68C994.386 134.96 994.272 134.326 994.044 133.778C993.82 133.23 993.482 132.802 993.03 132.494C992.578 132.186 992.014 132.03 991.338 132.026C990.662 132.026 990.1 132.18 989.652 132.488C989.204 132.796 988.866 133.226 988.638 133.778C988.414 134.326 988.3 134.96 988.296 135.68C988.292 136.4 988.402 137.034 988.626 137.582C988.854 138.126 989.194 138.554 989.646 138.866C990.098 139.174 990.662 139.33 991.338 139.334ZM999.092 140.18C998.44 140.18 997.888 140.034 997.436 139.742C996.984 139.45 996.64 139.048 996.404 138.536C996.172 138.02 996.052 137.428 996.044 136.76C996.052 136.08 996.176 135.484 996.416 134.972C996.656 134.456 997.002 134.056 997.454 133.772C997.906 133.484 998.454 133.34 999.098 133.34C999.754 133.34 1000.32 133.5 1000.81 133.82C1001.3 134.14 1001.63 134.578 1001.81 135.134L1000.95 135.41C1000.79 135.022 1000.55 134.722 1000.22 134.51C999.892 134.294 999.516 134.186 999.092 134.186C998.616 134.186 998.222 134.296 997.91 134.516C997.598 134.732 997.366 135.034 997.214 135.422C997.062 135.81 996.984 136.256 996.98 136.76C996.988 137.536 997.168 138.16 997.52 138.632C997.872 139.1 998.396 139.334 999.092 139.334C999.532 139.334 999.906 139.234 1000.21 139.034C1000.53 138.83 1000.76 138.534 1000.92 138.146L1001.81 138.41C1001.57 138.986 1001.22 139.426 1000.75 139.73C1000.29 140.03 999.736 140.18 999.092 140.18ZM1006.46 140C1006.09 140.076 1005.73 140.106 1005.38 140.09C1005.02 140.074 1004.71 139.998 1004.43 139.862C1004.15 139.726 1003.94 139.514 1003.8 139.226C1003.68 138.986 1003.62 138.744 1003.61 138.5C1003.6 138.252 1003.59 137.97 1003.59 137.654V131.72H1004.47V137.618C1004.47 137.89 1004.47 138.118 1004.48 138.302C1004.48 138.482 1004.53 138.642 1004.6 138.782C1004.75 139.05 1004.97 139.21 1005.29 139.262C1005.6 139.314 1005.99 139.302 1006.46 139.226V140ZM1002.21 134.276V133.52H1006.46V134.276H1002.21Z" fill="#ACB5BB"/>
<path d="M1048.84 140V131.36H1049.73L1054.49 138.44V131.36H1055.37V140H1054.49L1049.73 132.914V140H1048.84ZM1059.64 140.18C1059 140.18 1058.45 140.034 1057.99 139.742C1057.53 139.45 1057.18 139.046 1056.94 138.53C1056.7 138.014 1056.57 137.422 1056.57 136.754C1056.57 136.074 1056.7 135.478 1056.95 134.966C1057.19 134.454 1057.55 134.056 1058 133.772C1058.46 133.484 1059.01 133.34 1059.64 133.34C1060.29 133.34 1060.84 133.486 1061.3 133.778C1061.76 134.066 1062.11 134.468 1062.35 134.984C1062.59 135.496 1062.71 136.086 1062.71 136.754C1062.71 137.434 1062.59 138.032 1062.35 138.548C1062.1 139.06 1061.75 139.46 1061.29 139.748C1060.83 140.036 1060.28 140.18 1059.64 140.18ZM1059.64 139.334C1060.36 139.334 1060.9 139.096 1061.25 138.62C1061.6 138.14 1061.78 137.518 1061.78 136.754C1061.78 135.97 1061.6 135.346 1061.24 134.882C1060.89 134.418 1060.36 134.186 1059.64 134.186C1059.16 134.186 1058.76 134.296 1058.44 134.516C1058.13 134.732 1057.89 135.034 1057.74 135.422C1057.59 135.806 1057.51 136.25 1057.51 136.754C1057.51 137.534 1057.69 138.16 1058.05 138.632C1058.41 139.1 1058.94 139.334 1059.64 139.334ZM1065.43 140L1063.08 133.52H1063.98L1065.89 138.848L1067.79 133.52H1068.7L1066.35 140H1065.43Z" fill="#ACB5BB"/>
</g>
<defs>
<clipPath id="clip0_25_4919">
<rect width="1078" height="143" fill="white"/>
</clipPath>
</defs>
</svg>
