<svg width="331" height="331" viewBox="0 0 331 331" fill="none" xmlns="http://www.w3.org/2000/svg">
<path opacity="0.7" d="M44.9703 110.611C44.9703 110.611 26.5157 158.267 52.4489 206.272C78.3821 254.277 131.809 279.623 174.567 301.301C217.326 322.978 261.727 312.422 282.827 276.914C303.927 241.406 274.985 216.058 274.951 165.421C274.917 114.785 282.529 101.378 255.116 58.5982C227.702 15.8177 160.41 6.34983 109.542 38.0788C58.6737 69.8078 44.9703 110.611 44.9703 110.611Z" fill="white"/>
<path d="M51.0177 110.193C70.0992 75.0641 118.092 34.0612 183.938 51.1408C249.783 68.2204 294.269 104.352 286.979 167.218C279.69 230.083 241.384 282.312 158.87 283.841C76.3551 285.371 9.18067 187.216 51.0177 110.193Z" fill="#FDEB48"/>
<path opacity="0.7" d="M51.0177 110.193C70.0992 75.0641 118.092 34.0612 183.938 51.1408C249.783 68.2204 294.269 104.352 286.979 167.218C279.69 230.083 241.384 282.312 158.87 283.841C76.3551 285.371 9.18067 187.216 51.0177 110.193Z" fill="white"/>
<path d="M295.656 189.787L252.72 196.435C251.079 196.689 249.542 195.565 249.288 193.924L245.239 167.774C244.985 166.133 246.11 164.596 247.751 164.342L290.687 157.695C292.328 157.441 293.864 158.566 294.119 160.207L298.167 186.356C298.422 187.997 297.297 189.534 295.656 189.787Z" stroke="#263238" stroke-width="0.662" stroke-miterlimit="10" stroke-linecap="round" stroke-linejoin="round"/>
<path d="M245.894 171.997L294.773 164.429" stroke="#263238" stroke-width="0.662" stroke-miterlimit="10" stroke-linecap="round" stroke-linejoin="round"/>
<path d="M290.942 173.002L283.049 174.224L284.809 185.593L292.703 184.371L290.942 173.002Z" stroke="#263238" stroke-width="0.662" stroke-miterlimit="10" stroke-linecap="round" stroke-linejoin="round"/>
<path d="M286.263 176.115C287.93 174.15 290.668 175.464 290.029 181.611L292.47 182.823L292.71 184.376L284.816 185.598L284.496 183.528L287.473 182.365C287.473 182.365 284.694 177.964 286.263 176.115Z" stroke="#263238" stroke-width="0.662" stroke-miterlimit="10" stroke-linecap="round" stroke-linejoin="round"/>
<path d="M269.135 190.013C269.135 190.013 274.84 190.058 273.206 188.919C271.572 187.78 271.327 186.628 272.716 186.611C274.105 186.593 276.435 189.231 276.253 187.627C276.071 186.024 277.072 187.061 277.264 187.164C277.456 187.267 279.107 186.614 279.187 186.8C279.267 186.986 279.154 187.534 284.524 186.703" stroke="#263238" stroke-width="0.662" stroke-miterlimit="10" stroke-linecap="round" stroke-linejoin="round"/>
<path d="M250.038 177.069L273.978 173.363" stroke="#263238" stroke-width="0.662" stroke-miterlimit="10" stroke-linecap="round" stroke-linejoin="round"/>
<path d="M250.459 179.787L264.564 177.603" stroke="#263238" stroke-width="0.662" stroke-miterlimit="10" stroke-linecap="round" stroke-linejoin="round"/>
<path d="M251.2 184.575L270.87 181.53" stroke="#263238" stroke-width="0.662" stroke-miterlimit="10" stroke-linecap="round" stroke-linejoin="round"/>
<path d="M257.306 166.668L281.311 162.952" stroke="#263238" stroke-width="0.662" stroke-miterlimit="10" stroke-linecap="round" stroke-linejoin="round"/>
<path d="M28.6992 149.903L82.3676 139.185L101.109 229.163L44.0629 241.402L28.6992 149.903Z" stroke="#263238" stroke-width="0.662" stroke-miterlimit="10" stroke-linecap="round" stroke-linejoin="round"/>
<path d="M41.9065 228.56L98.8372 218.256" stroke="#263238" stroke-width="0.662" stroke-miterlimit="10" stroke-linecap="round" stroke-linejoin="round"/>
<path d="M92.0902 210.603L64.9038 215.623" stroke="#263238" stroke-width="0.662" stroke-miterlimit="10" stroke-linecap="round" stroke-linejoin="round"/>
<path d="M88.0605 206.086L80.1165 207.257" stroke="#263238" stroke-width="0.662" stroke-miterlimit="10" stroke-linecap="round" stroke-linejoin="round"/>
<path d="M89.2707 196.901L48.6895 204.512" stroke="#263238" stroke-width="0.662" stroke-miterlimit="10" stroke-linecap="round" stroke-linejoin="round"/>
<path d="M35.7183 191.705L91.2634 181.895" stroke="#263238" stroke-width="0.662" stroke-miterlimit="10" stroke-linecap="round" stroke-linejoin="round" stroke-dasharray="0.66 1.32"/>
<path d="M94.7389 226.251L60.9988 233.323" stroke="#263238" stroke-width="0.662" stroke-miterlimit="10" stroke-linecap="round" stroke-linejoin="round"/>
<path d="M93.7346 223.408L77.8684 226.251" stroke="#263238" stroke-width="0.662" stroke-miterlimit="10" stroke-linecap="round" stroke-linejoin="round"/>
<path d="M85.153 175.968L57.3318 181.483" stroke="#263238" stroke-width="0.662" stroke-miterlimit="10" stroke-linecap="round" stroke-linejoin="round"/>
<path d="M82.9552 169.791L74.093 171.534" stroke="#263238" stroke-width="0.662" stroke-miterlimit="10" stroke-linecap="round" stroke-linejoin="round"/>
<path d="M82.4302 165.5L41.9065 173.31" stroke="#263238" stroke-width="0.662" stroke-miterlimit="10" stroke-linecap="round" stroke-linejoin="round"/>
<path d="M78.7487 144.622L67.8079 146.886" stroke="#263238" stroke-width="0.662" stroke-miterlimit="10" stroke-linecap="round" stroke-linejoin="round"/>
<path d="M41.9065 152.398L32.4644 154.231" stroke="#263238" stroke-width="0.662" stroke-miterlimit="10" stroke-linecap="round" stroke-linejoin="round"/>
<path d="M35.9004 159.437C36.2863 158.089 37.2509 156.96 38.5186 156.363" stroke="#263238" stroke-width="0.662" stroke-miterlimit="10" stroke-linecap="round" stroke-linejoin="round"/>
<path d="M40.0961 165.5C37.7168 165.192 35.7183 163.213 35.7183 160.757" stroke="#263238" stroke-width="0.662" stroke-miterlimit="10" stroke-linecap="round" stroke-linejoin="round"/>
<path d="M43.7803 164.377C43.1063 164.976 42.2702 165.366 41.3772 165.493" stroke="#263238" stroke-width="0.662" stroke-miterlimit="10" stroke-linecap="round" stroke-linejoin="round"/>
<path d="M40.563 155.912C44.2159 155.928 46.613 160.192 44.678 163.314" stroke="#263238" stroke-width="0.662" stroke-miterlimit="10" stroke-linecap="round" stroke-linejoin="round"/>
<path d="M50.2129 157.161C49.3337 156.879 48.4579 156.56 47.5549 156.363" stroke="#263238" stroke-width="0.662" stroke-miterlimit="10" stroke-linecap="round" stroke-linejoin="round"/>
<path d="M57.7224 157.798C56.9724 159.576 52.7879 157.953 51.5671 157.584" stroke="#263238" stroke-width="0.662" stroke-miterlimit="10" stroke-linecap="round" stroke-linejoin="round"/>
<path d="M50.5576 153.07C53.1652 153.69 55.7722 154.31 58.3798 154.93C58.2567 155.451 58.1574 155.978 58.0581 156.504" stroke="#263238" stroke-width="0.662" stroke-miterlimit="10" stroke-linecap="round" stroke-linejoin="round"/>
<path d="M46.6824 154.93C47.5165 152.914 47.1901 152.27 49.2695 152.764" stroke="#263238" stroke-width="0.662" stroke-miterlimit="10" stroke-linecap="round" stroke-linejoin="round"/>
<path d="M142.163 295.429L152.521 298.605L144.824 289.539C149.062 284.662 151.565 278.697 151.642 272.502" stroke="#263238" stroke-width="0.662" stroke-miterlimit="10" stroke-linecap="round" stroke-linejoin="round"/>
<path d="M129.593 299.43C133.178 298.28 136.443 296.608 139.307 294.554" stroke="#263238" stroke-width="0.662" stroke-miterlimit="10" stroke-linecap="round" stroke-linejoin="round"/>
<path d="M89.615 280.168C92.6648 294.868 108.912 303.926 125.905 300.401" stroke="#263238" stroke-width="0.662" stroke-miterlimit="10" stroke-linecap="round" stroke-linejoin="round"/>
<path d="M92.0902 263.591C91.4361 264.838 90.882 266.125 90.4365 267.441" stroke="#263238" stroke-width="0.662" stroke-miterlimit="10" stroke-linecap="round" stroke-linejoin="round"/>
<path d="M151.15 267.401C148.1 252.701 131.852 243.643 114.86 247.168C106.648 248.872 99.7646 253.203 95.1882 258.884" stroke="#263238" stroke-width="0.662" stroke-miterlimit="10" stroke-linecap="round" stroke-linejoin="round"/>
<path d="M133.122 262.013C128.23 256.682 121.563 260.379 118.791 265.787C114.208 261.797 106.644 260.844 104.086 267.612C99.7722 279.021 114.535 285.974 121.362 288.495C122.137 288.786 122.777 289.026 123.308 289.209C123.732 288.841 124.238 288.381 124.848 287.822C130.248 282.945 141.368 271.001 133.122 262.013Z" stroke="#263238" stroke-width="0.662" stroke-miterlimit="10" stroke-linecap="round" stroke-linejoin="round"/>
<path d="M173.803 45L163.799 40.8413L170.587 50.6071C165.899 55.0531 162.832 60.749 162.159 66.9082" stroke="#263238" stroke-width="0.662" stroke-miterlimit="10" stroke-linecap="round" stroke-linejoin="round"/>
<path d="M186.7 42.2282C183.021 43.0272 179.61 44.3777 176.562 46.1466" stroke="#263238" stroke-width="0.662" stroke-miterlimit="10" stroke-linecap="round" stroke-linejoin="round"/>
<path d="M224.637 65.2513C223.017 50.3265 207.718 39.7451 190.465 41.6172" stroke="#263238" stroke-width="0.662" stroke-miterlimit="10" stroke-linecap="round" stroke-linejoin="round"/>
<path d="M220.576 81.5133C221.348 80.3349 222.023 79.1076 222.594 77.8392" stroke="#263238" stroke-width="0.662" stroke-miterlimit="10" stroke-linecap="round" stroke-linejoin="round"/>
<path d="M162.158 72.0321C163.778 86.9569 179.078 97.5383 196.331 95.6662C204.669 94.7612 211.937 91.1129 217.039 85.9003" stroke="#263238" stroke-width="0.662" stroke-miterlimit="10" stroke-linecap="round" stroke-linejoin="round"/>
<path d="M200.677 81.1813C208.327 77.0867 211.21 67.5657 207.115 59.9154C203.021 52.2652 193.5 49.3827 185.85 53.4772C178.199 57.5718 175.317 67.0928 179.411 74.7431C183.506 82.3933 193.027 85.2758 200.677 81.1813Z" stroke="#263238" stroke-width="0.662" stroke-miterlimit="10" stroke-linecap="round" stroke-linejoin="round"/>
<path d="M187.288 69.3047L191.984 73.7408L199.827 60.2452" stroke="#263238" stroke-width="0.662" stroke-miterlimit="10" stroke-linecap="round" stroke-linejoin="round"/>
<path opacity="0.2" d="M212.894 216.947C212.894 216.947 210.538 245.464 213.942 252.378C217.346 259.293 219.06 306.565 217.531 312.51C217.531 312.51 228.51 315.279 232.854 311.347C237.198 307.416 243.877 311.198 254.877 307.349C265.876 303.501 257.94 218.589 257.94 218.589L258.28 187.697L240.131 171.534L212.894 216.947Z" fill="black" fill-opacity="0.7"/>
<path d="M227.523 230.661C227.424 230.912 227.318 231.098 227.198 231.21C224.855 233.428 214.852 235.89 206.259 237.665C199.143 239.141 192.993 240.14 192.993 240.14C192.993 240.14 188.279 200.97 188.279 196.852C188.279 192.728 180.68 126.071 180.68 126.071L198.898 125.283L223.107 124.237C223.107 124.237 223.253 126.018 223.498 129.13C225.047 148.976 230.561 222.842 227.523 230.661Z" fill="#FDEB48"/>
<mask id="mask0_53_6037" style="mask-type:luminance" maskUnits="userSpaceOnUse" x="180" y="124" width="49" height="117">
<path d="M227.523 230.661C227.424 230.912 227.318 231.098 227.198 231.21C224.855 233.428 214.852 235.89 206.259 237.665C199.143 239.141 192.993 240.14 192.993 240.14C192.993 240.14 188.279 200.97 188.279 196.852C188.279 192.728 180.68 126.071 180.68 126.071L198.898 125.283L223.107 124.237C223.107 124.237 223.253 126.018 223.498 129.13C225.047 148.976 230.561 222.842 227.523 230.661Z" fill="white"/>
</mask>
<g mask="url(#mask0_53_6037)">
<path opacity="0.2" d="M227.523 230.661L206.259 235.036L198.229 236.685C196.051 234.546 194.39 234.507 194.39 234.507L193.754 228.516L192.715 218.711L183.566 132.453C185.565 131.082 186.532 128.084 186.532 128.084L198.779 127.64L219.996 126.866L223.498 129.13C225.047 148.976 230.561 222.842 227.523 230.661Z" fill="black" fill-opacity="0.7"/>
</g>
<mask id="mask1_53_6037" style="mask-type:luminance" maskUnits="userSpaceOnUse" x="180" y="124" width="49" height="117">
<path d="M227.523 230.661C227.424 230.912 227.318 231.098 227.198 231.21C224.855 233.428 214.852 235.89 206.259 237.665C199.143 239.141 192.993 240.14 192.993 240.14C192.993 240.14 188.279 200.97 188.279 196.852C188.279 192.728 180.68 126.071 180.68 126.071L198.898 125.283L223.107 124.237C223.107 124.237 223.253 126.018 223.498 129.13C225.047 148.976 230.561 222.842 227.523 230.661Z" fill="white"/>
</mask>
<g mask="url(#mask1_53_6037)">
<path d="M227.523 230.661L206.259 235.036L198.229 236.685C196.051 234.546 194.39 234.507 194.39 234.507L193.754 228.516L192.715 218.711L183.566 132.453C185.565 131.082 186.532 128.084 186.532 128.084L198.779 127.64L219.996 126.866L223.498 129.13C225.047 148.976 230.561 222.842 227.523 230.661Z" stroke="#263238" stroke-width="0.662" stroke-miterlimit="10" stroke-linecap="round" stroke-linejoin="round"/>
</g>
<mask id="mask2_53_6037" style="mask-type:luminance" maskUnits="userSpaceOnUse" x="180" y="124" width="49" height="117">
<path d="M227.523 230.661C227.424 230.912 227.318 231.098 227.198 231.21C224.855 233.428 214.852 235.89 206.259 237.665C199.143 239.141 192.993 240.14 192.993 240.14C192.993 240.14 188.279 200.97 188.279 196.852C188.279 192.728 180.68 126.071 180.68 126.071L198.898 125.283L223.107 124.237C223.107 124.237 223.253 126.018 223.498 129.13C225.047 148.976 230.561 222.842 227.523 230.661Z" fill="white"/>
</mask>
<g mask="url(#mask2_53_6037)">
<path d="M195.518 205.265L202.613 205.254L202.62 207.474L200.645 208.173L196.098 208.671L195.518 205.265Z" fill="#FDEB48" stroke="#263238" stroke-width="0.662" stroke-miterlimit="10" stroke-linecap="round" stroke-linejoin="round"/>
<path d="M195.954 209.833L201.169 209.654L202.506 210.292L202.436 213.234L196.349 213.305L195.954 209.833Z" fill="#FDEB48" stroke="#263238" stroke-width="0.662" stroke-miterlimit="10" stroke-linecap="round" stroke-linejoin="round"/>
<path d="M196.786 214.539L202.747 214.113L202.676 216.344L199.799 217.362L196.752 217.19L196.786 214.539Z" fill="#FDEB48" stroke="#263238" stroke-width="0.662" stroke-miterlimit="10" stroke-linecap="round" stroke-linejoin="round"/>
<path d="M197.146 218.302L201.954 218.544L202.391 219.779L201.692 221.137L197.39 221.41L196.647 219.311L197.146 218.302Z" fill="#FDEB48" stroke="#263238" stroke-width="0.662" stroke-miterlimit="10" stroke-linecap="round" stroke-linejoin="round"/>
<path d="M202.692 222.609C202.92 223.25 203.149 223.892 203.377 224.534C203.529 224.962 203.672 225.472 203.408 225.841C203.191 226.145 202.771 226.229 202.399 226.196C202.027 226.162 201.667 226.037 201.294 226.021C200.177 225.971 199.146 226.892 198.046 226.693C197.617 225.505 196.534 223.759 198.001 223.22C198.225 223.138 202.847 223.048 202.692 222.609Z" fill="#FDEB48" stroke="#263238" stroke-width="0.662" stroke-miterlimit="10" stroke-linecap="round" stroke-linejoin="round"/>
<path d="M202.67 228.034C202.778 228.49 202.853 228.955 202.896 229.423C202.952 230.027 202.904 230.739 202.404 231.083C202.14 231.264 201.805 231.299 201.486 231.327C200.211 231.442 198.936 231.556 197.66 231.671C197.625 231.675 197.572 229.704 197.624 229.503C197.849 228.644 197.69 228.714 198.505 228.366C199.796 227.814 201.345 228.689 202.67 228.034Z" fill="#FDEB48" stroke="#263238" stroke-width="0.662" stroke-miterlimit="10" stroke-linecap="round" stroke-linejoin="round"/>
</g>
<mask id="mask3_53_6037" style="mask-type:luminance" maskUnits="userSpaceOnUse" x="180" y="124" width="49" height="117">
<path d="M227.523 230.661C227.424 230.912 227.318 231.098 227.198 231.21C224.855 233.428 214.852 235.89 206.259 237.665C199.143 239.141 192.993 240.14 192.993 240.14C192.993 240.14 188.279 200.97 188.279 196.852C188.279 192.728 180.68 126.071 180.68 126.071L198.898 125.283L223.107 124.237C223.107 124.237 223.253 126.018 223.498 129.13C225.047 148.976 230.561 222.842 227.523 230.661Z" fill="white"/>
</mask>
<g mask="url(#mask3_53_6037)">
<path d="M188.756 134.404C188.756 134.404 190.201 148.356 190.267 151.116" stroke="#263238" stroke-width="0.662" stroke-miterlimit="10" stroke-linecap="round" stroke-linejoin="round"/>
</g>
<mask id="mask4_53_6037" style="mask-type:luminance" maskUnits="userSpaceOnUse" x="180" y="124" width="49" height="117">
<path d="M227.523 230.661C227.424 230.912 227.318 231.098 227.198 231.21C224.855 233.428 214.852 235.89 206.259 237.665C199.143 239.141 192.993 240.14 192.993 240.14C192.993 240.14 188.279 200.97 188.279 196.852C188.279 192.728 180.68 126.071 180.68 126.071L198.898 125.283L223.107 124.237C223.107 124.237 223.253 126.018 223.498 129.13C225.047 148.976 230.561 222.842 227.523 230.661Z" fill="white"/>
</mask>
<g mask="url(#mask4_53_6037)">
<path d="M191.866 134.537L192.544 142.226" stroke="#263238" stroke-width="0.662" stroke-miterlimit="10" stroke-linecap="round" stroke-linejoin="round"/>
</g>
<mask id="mask5_53_6037" style="mask-type:luminance" maskUnits="userSpaceOnUse" x="180" y="124" width="49" height="117">
<path d="M227.523 230.661C227.424 230.912 227.318 231.098 227.198 231.21C224.855 233.428 214.852 235.89 206.259 237.665C199.143 239.141 192.993 240.14 192.993 240.14C192.993 240.14 188.279 200.97 188.279 196.852C188.279 192.728 180.68 126.071 180.68 126.071L198.898 125.283L223.107 124.237C223.107 124.237 223.253 126.018 223.498 129.13C225.047 148.976 230.561 222.842 227.523 230.661Z" fill="white"/>
</mask>
<g mask="url(#mask5_53_6037)">
<path d="M202.649 131.633L203.524 140.642L204.749 140.758L204.349 131.717L202.649 131.633Z" fill="#FDEB48" stroke="#263238" stroke-width="0.662" stroke-miterlimit="10" stroke-linecap="round" stroke-linejoin="round"/>
</g>
<mask id="mask6_53_6037" style="mask-type:luminance" maskUnits="userSpaceOnUse" x="180" y="124" width="49" height="117">
<path d="M227.523 230.661C227.424 230.912 227.318 231.098 227.198 231.21C224.855 233.428 214.852 235.89 206.259 237.665C199.143 239.141 192.993 240.14 192.993 240.14C192.993 240.14 188.279 200.97 188.279 196.852C188.279 192.728 180.68 126.071 180.68 126.071L198.898 125.283L223.107 124.237C223.107 124.237 223.253 126.018 223.498 129.13C225.047 148.976 230.561 222.842 227.523 230.661Z" fill="white"/>
</mask>
<g mask="url(#mask6_53_6037)">
<path opacity="0.2" d="M227.523 230.661C227.423 230.912 227.318 231.097 227.198 231.21C224.855 233.428 214.852 235.89 206.259 237.665V231.72L193.754 228.516L191.867 228.032L192.715 218.711L195.952 183.083L198.779 127.64L198.898 125.283L223.107 124.237C223.107 124.237 223.253 126.018 223.498 129.13C225.047 148.976 230.561 222.842 227.523 230.661Z" fill="black" fill-opacity="0.7"/>
</g>
<path d="M227.523 230.661C227.424 230.912 227.318 231.098 227.198 231.21C224.855 233.428 214.852 235.89 206.259 237.665C199.143 239.141 192.993 240.14 192.993 240.14C192.993 240.14 188.279 200.97 188.279 196.852C188.279 192.728 180.68 126.071 180.68 126.071L198.898 125.283L223.107 124.237C223.107 124.237 223.253 126.018 223.498 129.13C225.047 148.976 230.561 222.842 227.523 230.661Z" stroke="#263238" stroke-width="0.662" stroke-miterlimit="10" stroke-linecap="round" stroke-linejoin="round"/>
<path d="M240.346 319.547C240.498 318.151 238.3 298.113 238.26 295.935C238.154 289.963 236.466 282.158 236.466 282.158C234.11 276.134 232.276 262.251 225.987 253.347C219.704 244.444 219.704 233.971 218.658 225.067C217.606 216.163 217.871 216.944 218.135 209.053C218.394 201.155 217.871 196.521 217.348 191.285C216.825 186.042 215.779 176.82 217.348 172.524C218.917 168.234 223.021 167.241 227.516 171.531C232.011 175.827 233.845 193.476 233.845 195.654C233.845 197.832 233.845 204.638 235.42 207.259C235.42 207.259 244.324 202.704 244.324 201.447C244.324 200.189 244.059 189.074 245.37 188.478L240.134 171.531L250.084 168.002C250.084 168.002 252.48 169.969 254.876 173.762C255.863 175.324 256.856 177.204 257.677 179.382C261.867 190.497 268.6 198.249 269.99 201.447C271.38 204.638 269.99 230.038 269.99 234.759C269.99 239.472 266.945 261.258 267.024 264.899C267.084 267.528 268.871 277.398 270.652 284.951C271.34 287.864 275.332 308.969 275.915 310.644L240.346 319.547Z" fill="white"/>
<path opacity="0.4" d="M248.184 187.392C248.117 188.816 249.819 200.162 249.819 200.162C251 202.986 244.562 212.625 244.562 212.625C243.172 213.411 242.567 218.256 242.567 218.256C238.211 217.29 228.238 207.259 228.238 207.259C228.238 207.259 227.039 211.37 225.729 221.545C224.418 231.713 232.799 255.89 236.374 272.579C239.948 289.268 238.26 295.935 238.26 295.935C238.154 289.963 236.466 282.158 236.466 282.158C234.11 276.134 232.276 262.251 225.987 253.347C219.704 244.444 219.704 233.971 218.658 225.067C217.606 216.163 217.871 216.944 218.135 209.053C218.394 201.155 217.871 196.521 217.348 191.285C216.825 186.042 215.779 176.82 217.348 172.524C218.917 168.234 223.021 167.241 227.516 171.531C232.011 175.827 233.845 193.476 233.845 195.654C233.845 197.832 233.845 204.638 235.42 207.259C235.42 207.259 244.324 202.704 244.324 201.447C244.324 200.189 244.059 189.074 245.37 188.478L240.134 171.531L250.084 168.002C250.084 168.002 252.48 169.969 254.876 173.762C251.646 180.216 248.223 186.505 248.184 187.392Z" fill="#FDEB48"/>
<path opacity="0.4" d="M264.879 266.687C265.316 262.721 266.62 253.275 267.448 247.383C266.435 251.984 264.813 254.314 264.813 254.314C264.813 254.314 267.633 220.532 267.911 218.493C268.189 216.447 271.036 207.179 269.99 201.447C271.38 204.637 269.99 230.038 269.99 234.758C269.99 239.472 266.945 261.258 267.024 264.899C267.084 267.527 269.923 284.418 271.703 291.972C267.864 286.411 264.443 270.679 264.879 266.687Z" fill="#FDEB48"/>
<path d="M275.916 310.645C273.82 304.622 267.106 268.54 267.024 264.9C266.942 261.261 269.987 239.47 269.987 234.756C269.987 230.042 271.377 204.639 269.987 201.445C268.597 198.251 261.868 190.496 257.678 179.38C254.873 171.938 250.083 168 250.083 168L240.131 171.535L245.369 188.475C244.06 189.073 244.322 200.186 244.322 201.445C244.322 202.703 235.417 207.257 235.417 207.257C233.846 204.638 233.846 197.829 233.846 195.653C233.846 193.477 232.013 175.83 227.517 171.534C223.021 167.238 218.918 168.235 217.347 172.527C215.775 176.819 216.823 186.045 217.347 191.282C217.87 196.52 218.394 201.155 218.132 209.052C217.87 216.947 217.609 216.162 218.656 225.066C219.703 233.971 219.703 244.446 225.989 253.35C232.275 262.255 234.108 276.135 236.464 282.158C236.464 282.158 240.918 314.312 240.346 319.55" stroke="#263238" stroke-width="0.662" stroke-miterlimit="10" stroke-linecap="round" stroke-linejoin="round"/>
<path d="M235.417 207.257C235.417 207.257 236.989 214.59 240.524 218.256" stroke="#263238" stroke-width="0.662" stroke-miterlimit="10" stroke-linecap="round" stroke-linejoin="round"/>
<path d="M236.373 210.603C236.373 210.603 243.012 212.626 245.762 212.756" stroke="#263238" stroke-width="0.662" stroke-miterlimit="10" stroke-linecap="round" stroke-linejoin="round"/>
<path d="M244.322 201.445C244.322 201.445 249.036 199.269 252.047 200.579" stroke="#263238" stroke-width="0.662" stroke-miterlimit="10" stroke-linecap="round" stroke-linejoin="round"/>
<path d="M245.369 188.475C245.369 188.475 249.035 188.139 249.821 186.305" stroke="#263238" stroke-width="0.662" stroke-miterlimit="10" stroke-linecap="round" stroke-linejoin="round"/>
<path d="M227.201 255.217C227.201 255.217 234.239 263.956 236.334 268.408" stroke="#263238" stroke-width="0.662" stroke-miterlimit="10" stroke-linecap="round" stroke-linejoin="round"/>
<path d="M268.154 216.947C266.976 223.887 265.404 242.874 264.88 246.279" stroke="#263238" stroke-width="0.662" stroke-miterlimit="10" stroke-linecap="round" stroke-linejoin="round"/>
<path d="M270.408 203.85C270.604 210.137 269.07 213.411 269.07 213.411" stroke="#263238" stroke-width="0.662" stroke-miterlimit="10" stroke-linecap="round" stroke-linejoin="round"/>
<path d="M216.266 115.859L264.815 128.65C264.815 128.65 247.739 180.425 244.25 186.852L238.466 231.982C238.466 231.982 207.46 230.621 193.201 226.311C193.201 226.311 202.213 179.301 202.698 173.042C203.183 166.783 216.266 115.859 216.266 115.859Z" fill="#FDEB48"/>
<mask id="mask7_53_6037" style="mask-type:luminance" maskUnits="userSpaceOnUse" x="193" y="115" width="72" height="117">
<path d="M216.266 115.859L264.815 128.65C264.815 128.65 247.739 180.425 244.25 186.852L238.466 231.982C238.466 231.982 207.46 230.621 193.201 226.311C193.201 226.311 202.213 179.301 202.698 173.042C203.183 166.783 216.266 115.859 216.266 115.859Z" fill="white"/>
</mask>
<g mask="url(#mask7_53_6037)">
<path opacity="0.2" d="M205.824 170.26L216.519 124.523C216.519 124.523 221.122 122.236 222.902 120.156L257.678 130.043C257.678 130.043 257.785 133.453 259.773 135.64L242.227 186.207L237.971 223.483C237.971 223.483 232.308 223.938 231.767 228.128C231.767 228.128 213.419 229.119 201.109 225.874C201.109 225.874 199.659 221.35 197.443 218.492L205.824 170.26Z" fill="black" fill-opacity="0.7"/>
</g>
<mask id="mask8_53_6037" style="mask-type:luminance" maskUnits="userSpaceOnUse" x="193" y="115" width="72" height="117">
<path d="M216.266 115.859L264.815 128.65C264.815 128.65 247.739 180.425 244.25 186.852L238.466 231.982C238.466 231.982 207.46 230.621 193.201 226.311C193.201 226.311 202.213 179.301 202.698 173.042C203.183 166.783 216.266 115.859 216.266 115.859Z" fill="white"/>
</mask>
<g mask="url(#mask8_53_6037)">
<path d="M205.824 170.26L216.519 124.523C216.519 124.523 221.122 122.236 222.902 120.156L257.678 130.043C257.678 130.043 257.785 133.453 259.773 135.64L242.227 186.207L237.971 223.483C237.971 223.483 232.308 223.938 231.767 228.128C231.767 228.128 213.419 229.119 201.109 225.874C201.109 225.874 199.659 221.35 197.443 218.492L205.824 170.26Z" stroke="#263238" stroke-width="0.662" stroke-miterlimit="10" stroke-linecap="round" stroke-linejoin="round"/>
</g>
<mask id="mask9_53_6037" style="mask-type:luminance" maskUnits="userSpaceOnUse" x="193" y="115" width="72" height="117">
<path d="M216.266 115.859L264.815 128.65C264.815 128.65 247.739 180.425 244.25 186.852L238.466 231.982C238.466 231.982 207.46 230.621 193.201 226.311C193.201 226.311 202.213 179.301 202.698 173.042C203.183 166.783 216.266 115.859 216.266 115.859Z" fill="white"/>
</mask>
<g mask="url(#mask9_53_6037)">
<path d="M214.728 172.634C214.728 172.634 217.884 160.709 229.008 162.861C240.132 165.012 233.846 179.678 233.846 179.678C233.846 179.678 233.914 191.527 224.887 189.892C217.066 188.475 212.895 184.184 214.728 172.634Z" fill="#FDEB48" stroke="#263238" stroke-width="0.662" stroke-miterlimit="10" stroke-linecap="round" stroke-linejoin="round"/>
</g>
<mask id="mask10_53_6037" style="mask-type:luminance" maskUnits="userSpaceOnUse" x="193" y="115" width="72" height="117">
<path d="M216.266 115.859L264.815 128.65C264.815 128.65 247.739 180.425 244.25 186.852L238.466 231.982C238.466 231.982 207.46 230.621 193.201 226.311C193.201 226.311 202.213 179.301 202.698 173.042C203.183 166.783 216.266 115.859 216.266 115.859Z" fill="white"/>
</mask>
<g mask="url(#mask10_53_6037)">
<path d="M220.751 128.871C220.751 128.871 217.389 142.49 216.517 145.108" stroke="#263238" stroke-width="0.662" stroke-miterlimit="10" stroke-linecap="round" stroke-linejoin="round"/>
</g>
<mask id="mask11_53_6037" style="mask-type:luminance" maskUnits="userSpaceOnUse" x="193" y="115" width="72" height="117">
<path d="M216.266 115.859L264.815 128.65C264.815 128.65 247.739 180.425 244.25 186.852L238.466 231.982C238.466 231.982 207.46 230.621 193.201 226.311C193.201 226.311 202.213 179.301 202.698 173.042C203.183 166.783 216.266 115.859 216.266 115.859Z" fill="white"/>
</mask>
<g mask="url(#mask11_53_6037)">
<path d="M223.632 130.051L221.668 137.514" stroke="#263238" stroke-width="0.662" stroke-miterlimit="10" stroke-linecap="round" stroke-linejoin="round"/>
</g>
<mask id="mask12_53_6037" style="mask-type:luminance" maskUnits="userSpaceOnUse" x="193" y="115" width="72" height="117">
<path d="M216.266 115.859L264.815 128.65C264.815 128.65 247.739 180.425 244.25 186.852L238.466 231.982C238.466 231.982 207.46 230.621 193.201 226.311C193.201 226.311 202.213 179.301 202.698 173.042C203.183 166.783 216.266 115.859 216.266 115.859Z" fill="white"/>
</mask>
<g mask="url(#mask12_53_6037)">
<path d="M248.185 135.288L254.877 137.645L254.143 139.74H252.047L247.595 138.692L248.185 135.288Z" fill="#FDEB48" stroke="#263238" stroke-width="0.662" stroke-miterlimit="10" stroke-linecap="round" stroke-linejoin="round"/>
<path d="M247.072 139.74L252.047 141.312L253.095 142.359L252.047 145.109L246.286 143.145L247.072 139.74Z" fill="#FDEB48" stroke="#263238" stroke-width="0.662" stroke-miterlimit="10" stroke-linecap="round" stroke-linejoin="round"/>
<path d="M246.286 144.454L252.047 146.042L251.236 148.12H248.184L245.369 146.942L246.286 144.454Z" fill="#FDEB48" stroke="#263238" stroke-width="0.662" stroke-miterlimit="10" stroke-linecap="round" stroke-linejoin="round"/>
<path d="M245.369 148.12L249.822 149.954V151.264L248.708 152.311L244.562 151.133V148.906L245.369 148.12Z" fill="#FDEB48" stroke="#263238" stroke-width="0.662" stroke-miterlimit="10" stroke-linecap="round" stroke-linejoin="round"/>
<path d="M249.16 154.032C249.162 154.713 249.163 155.395 249.164 156.075C249.165 156.53 249.13 157.057 248.757 157.318C248.451 157.532 248.027 157.472 247.687 157.316C247.348 157.161 247.05 156.922 246.704 156.782C245.668 156.363 244.388 156.887 243.418 156.333C243.409 155.069 242.972 153.062 244.534 153.043C244.773 153.04 249.16 154.498 249.16 154.032Z" fill="#FDEB48" stroke="#263238" stroke-width="0.662" stroke-miterlimit="10" stroke-linecap="round" stroke-linejoin="round"/>
<path d="M247.329 159.138C247.278 159.605 247.194 160.068 247.079 160.523C246.93 161.111 246.646 161.766 246.061 161.923C245.751 162.006 245.424 161.927 245.114 161.847C243.873 161.53 242.633 161.212 241.392 160.894C241.359 160.886 241.965 159.01 242.083 158.838C242.582 158.104 242.408 158.117 243.291 158.06C244.694 157.972 245.862 159.314 247.329 159.138Z" fill="#FDEB48" stroke="#263238" stroke-width="0.662" stroke-miterlimit="10" stroke-linecap="round" stroke-linejoin="round"/>
</g>
<mask id="mask13_53_6037" style="mask-type:luminance" maskUnits="userSpaceOnUse" x="193" y="115" width="72" height="117">
<path d="M216.266 115.859L264.815 128.65C264.815 128.65 247.739 180.425 244.25 186.852L238.466 231.982C238.466 231.982 207.46 230.621 193.201 226.311C193.201 226.311 202.213 179.301 202.698 173.042C203.183 166.783 216.266 115.859 216.266 115.859Z" fill="white"/>
</mask>
<g mask="url(#mask13_53_6037)">
<path d="M234.763 130.967L232.537 139.74L233.65 140.264L236.334 131.621L234.763 130.967Z" fill="#FDEB48" stroke="#263238" stroke-width="0.662" stroke-miterlimit="10" stroke-linecap="round" stroke-linejoin="round"/>
</g>
<mask id="mask14_53_6037" style="mask-type:luminance" maskUnits="userSpaceOnUse" x="193" y="115" width="72" height="117">
<path d="M216.266 115.859L264.815 128.65C264.815 128.65 247.739 180.425 244.25 186.852L238.466 231.982C238.466 231.982 207.46 230.621 193.201 226.311C193.201 226.311 202.213 179.301 202.698 173.042C203.183 166.783 216.266 115.859 216.266 115.859Z" fill="white"/>
</mask>
<g mask="url(#mask14_53_6037)">
<path d="M206.81 189.878L213.679 191.654L213.127 193.804L211.04 193.983L206.514 193.32L206.81 189.878Z" fill="#FDEB48" stroke="#263238" stroke-width="0.662" stroke-miterlimit="10" stroke-linecap="round" stroke-linejoin="round"/>
<path d="M206.082 194.409L211.174 195.549L212.307 196.503L211.499 199.333L205.591 197.868L206.082 194.409Z" fill="#FDEB48" stroke="#263238" stroke-width="0.662" stroke-miterlimit="10" stroke-linecap="round" stroke-linejoin="round"/>
<path d="M205.703 199.173L211.579 200.262L210.948 202.403L207.908 202.664L205.002 201.731L205.703 199.173Z" fill="#FDEB48" stroke="#263238" stroke-width="0.662" stroke-miterlimit="10" stroke-linecap="round" stroke-linejoin="round"/>
<path d="M205.103 202.905L209.696 204.35L209.808 205.655L208.789 206.794L204.557 205.975L204.366 203.757L205.103 202.905Z" fill="#FDEB48" stroke="#263238" stroke-width="0.662" stroke-miterlimit="10" stroke-linecap="round" stroke-linejoin="round"/>
<path d="M209.387 208.47C209.446 209.148 209.506 209.827 209.566 210.505C209.605 210.958 209.615 211.487 209.266 211.778C208.98 212.018 208.552 211.993 208.201 211.868C207.849 211.742 207.532 211.529 207.175 211.42C206.107 211.091 204.877 211.722 203.864 211.253C203.747 209.994 203.14 208.032 204.694 207.88C204.93 207.857 209.427 208.934 209.387 208.47Z" fill="#FDEB48" stroke="#263238" stroke-width="0.662" stroke-miterlimit="10" stroke-linecap="round" stroke-linejoin="round"/>
<path d="M207.999 213.714C207.988 214.183 207.944 214.652 207.869 215.116C207.771 215.714 207.544 216.391 206.974 216.598C206.673 216.707 206.341 216.656 206.024 216.603C204.761 216.393 203.498 216.183 202.234 215.973C202.201 215.968 202.644 214.047 202.746 213.865C203.18 213.09 203.008 213.118 203.884 212.987C205.274 212.778 206.552 214.015 207.999 213.714Z" fill="#FDEB48" stroke="#263238" stroke-width="0.662" stroke-miterlimit="10" stroke-linecap="round" stroke-linejoin="round"/>
</g>
<mask id="mask15_53_6037" style="mask-type:luminance" maskUnits="userSpaceOnUse" x="193" y="115" width="72" height="117">
<path d="M216.266 115.859L264.815 128.65C264.815 128.65 247.739 180.425 244.25 186.852L238.466 231.982C238.466 231.982 207.46 230.621 193.201 226.311C193.201 226.311 202.213 179.301 202.698 173.042C203.183 166.783 216.266 115.859 216.266 115.859Z" fill="white"/>
</mask>
<g mask="url(#mask15_53_6037)">
<path d="M235.417 220.141C235.417 220.141 236.989 202.545 236.989 200.802" stroke="#263238" stroke-width="0.662" stroke-miterlimit="10" stroke-linecap="round" stroke-linejoin="round"/>
</g>
<mask id="mask16_53_6037" style="mask-type:luminance" maskUnits="userSpaceOnUse" x="193" y="115" width="72" height="117">
<path d="M216.266 115.859L264.815 128.65C264.815 128.65 247.739 180.425 244.25 186.852L238.466 231.982C238.466 231.982 207.46 230.621 193.201 226.311C193.201 226.311 202.213 179.301 202.698 173.042C203.183 166.783 216.266 115.859 216.266 115.859Z" fill="white"/>
</mask>
<g mask="url(#mask16_53_6037)">
<path d="M232.275 219.355C232.275 219.355 232.929 210.216 233.06 208.631" stroke="#263238" stroke-width="0.662" stroke-miterlimit="10" stroke-linecap="round" stroke-linejoin="round"/>
</g>
<mask id="mask17_53_6037" style="mask-type:luminance" maskUnits="userSpaceOnUse" x="193" y="115" width="72" height="117">
<path d="M216.266 115.859L264.815 128.65C264.815 128.65 247.739 180.425 244.25 186.852L238.466 231.982C238.466 231.982 207.46 230.621 193.201 226.311C193.201 226.311 202.213 179.301 202.698 173.042C203.183 166.783 216.266 115.859 216.266 115.859Z" fill="white"/>
</mask>
<g mask="url(#mask17_53_6037)">
<path d="M219.994 212.757L217.871 223.152H219.994L221.537 212.757H219.994Z" fill="#FDEB48" stroke="#263238" stroke-width="0.662" stroke-miterlimit="10" stroke-linecap="round" stroke-linejoin="round"/>
</g>
<mask id="mask18_53_6037" style="mask-type:luminance" maskUnits="userSpaceOnUse" x="193" y="115" width="72" height="117">
<path d="M216.266 115.859L264.815 128.65C264.815 128.65 247.739 180.425 244.25 186.852L238.466 231.982C238.466 231.982 207.46 230.621 193.201 226.311C193.201 226.311 202.213 179.301 202.698 173.042C203.183 166.783 216.266 115.859 216.266 115.859Z" fill="white"/>
</mask>
<g mask="url(#mask18_53_6037)">
<path opacity="0.2" d="M244.391 186.591C239.796 185.631 235.699 184.221 232.667 182.189C232.667 182.189 234.865 188.504 242.656 199.269L238.466 231.985C238.466 231.985 218.228 231.098 202.936 228.483C207.636 215.243 216.163 190.153 215.163 185.181C213.793 178.356 218.632 170.299 218.632 170.299C233.931 167.546 248.767 155.98 258.948 146.203C253.765 161.548 246.688 182.063 244.391 186.591Z" fill="black" fill-opacity="0.7"/>
</g>
<path d="M216.266 115.859L264.815 128.65C264.815 128.65 247.739 180.425 244.25 186.852L238.466 231.982C238.466 231.982 207.46 230.621 193.201 226.311C193.201 226.311 202.213 179.301 202.698 173.042C203.183 166.783 216.266 115.859 216.266 115.859Z" stroke="#263238" stroke-width="0.662" stroke-miterlimit="10" stroke-linecap="round" stroke-linejoin="round"/>
<path d="M243.173 218.917L236.334 268.408C234.811 265.171 230.661 259.649 228.516 256.889C227.721 255.856 227.198 255.214 227.198 255.214L225.987 253.347C219.705 244.443 219.705 233.97 218.659 225.067C217.606 216.163 217.871 216.944 218.136 209.053C218.394 201.155 217.871 196.521 217.348 191.285C216.825 186.042 215.779 176.82 217.348 172.524C218.116 170.418 219.499 169.108 221.234 168.83C223.035 168.532 225.226 169.346 227.516 171.531C232.011 175.827 233.845 193.476 233.845 195.654C233.845 197.832 233.845 204.637 235.421 207.259C235.421 207.259 239.637 215.249 243.173 218.917Z" fill="white"/>
<path opacity="0.4" d="M225.464 249.819C226.894 251.646 227.867 254.281 228.516 256.889C227.721 255.856 227.198 255.214 227.198 255.214L225.987 253.347C219.705 244.443 219.705 233.97 218.659 225.067C217.606 216.163 217.871 216.944 218.136 209.053C218.394 201.155 217.871 196.521 217.348 191.285C216.825 186.042 215.779 176.82 217.348 172.524C218.116 170.418 219.499 169.108 221.234 168.83C224.57 169.77 227.841 173.139 229.006 178.905C230.965 188.584 222.035 180.766 219.963 188.968C217.897 197.163 220.903 199.381 222.141 201.446C223.372 203.512 221.797 208.06 219.963 214.183C218.136 220.313 221.538 244.794 225.464 249.819Z" fill="#FDEB48"/>
<path d="M243.173 218.918C239.637 215.252 235.418 207.257 235.418 207.257C233.846 204.638 233.846 197.829 233.846 195.653C233.846 193.477 232.013 175.83 227.518 171.534C223.022 167.238 218.919 168.235 217.347 172.527C215.776 176.819 216.824 186.044 217.347 191.282C217.871 196.52 218.395 201.155 218.133 209.052C217.871 216.947 217.609 216.162 218.657 225.066C219.704 233.971 219.704 244.446 225.99 253.35L227.201 255.217C227.201 255.217 234.239 263.957 236.334 268.409" stroke="#263238" stroke-width="0.662" stroke-miterlimit="10" stroke-linecap="round" stroke-linejoin="round"/>
<path d="M219.994 197.972C219.994 197.972 226.002 194.868 229.007 195.131" stroke="#263238" stroke-width="0.662" stroke-miterlimit="10" stroke-linecap="round" stroke-linejoin="round"/>
<path opacity="0.2" d="M128.304 113.076C128.304 113.076 113.115 96.3534 112.067 95.3061C111.02 94.2588 110.234 76.4504 107.353 68.5931C104.472 60.7365 103.065 14.6434 103.065 14.6434C103.065 14.6434 100.322 11.2387 92.5762 13.0718C84.8301 14.9049 77.235 11.5002 68.5933 16.4765C59.9508 21.4527 76.712 92.6866 76.712 92.6866L93.7168 146.885L128.304 113.076Z" fill="black" fill-opacity="0.7"/>
<path d="M138.735 113.195C138.735 113.195 131.93 156.669 124.853 162.428C120.755 165.771 114.367 167.261 108.7 167.056C104.596 166.91 100.862 165.877 98.6644 164.004C93.4279 159.549 86.093 157.192 82.4321 154.312C78.7646 151.432 78.7646 141.218 76.4079 132.572C74.0512 123.933 70.6419 123.668 69.8607 115.029C69.073 106.383 65.9285 79.9365 60.2353 72.6015C54.5421 65.2665 54.4097 59.5071 52.0529 52.0398C49.6962 44.5724 32.4644 17.5694 32.4644 17.5694L74.4881 8.96344C74.4881 8.96344 78.619 26.0629 83.0412 40.0112C85.1397 46.6312 87.3044 52.5495 89.1183 55.5815C94.7586 65.0084 98.1414 73.9123 98.1414 73.9123C102.895 78.8905 105.496 89.9194 106.284 99.578V99.5846L117.525 105.86C126.164 108.217 138.735 113.195 138.735 113.195Z" fill="white"/>
<path opacity="0.4" d="M138.735 113.195C138.735 113.195 131.93 156.669 124.853 162.428C120.755 165.771 114.367 167.261 108.7 167.056C95.2618 163.732 91.6473 156.252 89.8268 154.438C87.4039 152.022 84.2197 137.299 85.9673 128.732C87.7084 120.166 86.4559 116.995 85.0141 112.811C81.8186 103.543 91.5705 98.5532 92.5767 95.0439C93.583 91.542 93.2222 71.9123 88.8464 65.5307C86.5161 62.1346 80.5098 44.6307 83.0413 40.0112C85.1398 46.6312 87.3046 52.5495 89.1185 55.5815C94.7587 65.0084 98.1415 73.9123 98.1415 73.9123C102.895 78.8905 105.496 89.9194 106.284 99.578V99.5846L117.525 105.86C126.164 108.217 138.735 113.195 138.735 113.195Z" fill="#FDEB48"/>
<path d="M87.4157 110.146C87.4157 110.146 85.0491 112.933 82.9539 112.933" stroke="#263238" stroke-width="0.662" stroke-miterlimit="10" stroke-linecap="round" stroke-linejoin="round"/>
<path d="M92.5767 119.562C92.5767 119.562 90.0247 124.98 85.9653 126.159" stroke="#263238" stroke-width="0.662" stroke-miterlimit="10" stroke-linecap="round" stroke-linejoin="round"/>
<path d="M88.0605 151.299C88.0605 151.299 93.8219 148.812 94.7388 144.621" stroke="#263238" stroke-width="0.662" stroke-miterlimit="10" stroke-linecap="round" stroke-linejoin="round"/>
<path d="M117.523 105.862C117.523 105.862 116.083 107.695 116.083 109.135" stroke="#263238" stroke-width="0.662" stroke-miterlimit="10" stroke-linecap="round" stroke-linejoin="round"/>
<path d="M74.4881 8.96344C74.4881 8.96344 83.4781 46.148 89.1183 55.5815C94.7586 65.0084 98.1414 73.9123 98.1414 73.9123C102.895 78.8905 105.496 89.926 106.284 99.5846M106.284 99.5846V99.578M106.284 99.5846L117.525 105.86C126.164 108.217 138.735 113.195 138.735 113.195C138.735 113.195 131.93 156.669 124.853 162.428C117.783 168.194 103.907 168.452 98.6644 164.004C93.4279 159.549 86.093 157.192 82.4321 154.312C78.7646 151.432 78.7646 141.218 76.4079 132.572C74.0512 123.933 70.6419 123.668 69.8607 115.029C69.073 106.383 65.9285 79.9365 60.2353 72.6015C54.5421 65.2665 54.4097 59.5071 52.0529 52.0398C49.6962 44.5724 32.4644 17.5694 32.4644 17.5694" stroke="#263238" stroke-width="0.662" stroke-miterlimit="10" stroke-linecap="round" stroke-linejoin="round"/>
<path d="M154.659 110.379L85.1531 217.368L101.56 219.196L151.401 221.266L156.501 126.106L154.659 110.379Z" fill="#263238" stroke="#263238" stroke-width="0.662" stroke-miterlimit="10" stroke-linecap="round" stroke-linejoin="round"/>
<path d="M154.656 110.375L148.235 219.44L85.1531 217.368L90.1313 133.797L91.6804 107.846L119.167 108.952L154.656 110.375Z" fill="#757575"/>
<mask id="mask19_53_6037" style="mask-type:luminance" maskUnits="userSpaceOnUse" x="85" y="107" width="70" height="113">
<path d="M154.656 110.375L148.235 219.44L85.1531 217.368L90.1313 133.797L91.6804 107.846L119.167 108.952L154.656 110.375Z" fill="white"/>
</mask>
<g mask="url(#mask19_53_6037)">
<path d="M138.794 206.886C143.037 206.886 146.476 203.446 146.476 199.204C146.476 194.961 143.037 191.522 138.794 191.522C134.552 191.522 131.113 194.961 131.113 199.204C131.113 203.446 134.552 206.886 138.794 206.886Z" fill="#BFBFBF" stroke="#263238" stroke-width="0.662" stroke-miterlimit="10"/>
<path d="M136.631 194.104L141.834 194.788" stroke="#263238" stroke-width="0.662" stroke-miterlimit="10" stroke-linecap="round" stroke-linejoin="round"/>
<path d="M135.232 195.369L143.054 196.134" stroke="#263238" stroke-width="0.662" stroke-miterlimit="10" stroke-linecap="round" stroke-linejoin="round"/>
<path d="M134.365 203.072L142.188 203.836" stroke="#263238" stroke-width="0.662" stroke-miterlimit="10" stroke-linecap="round" stroke-linejoin="round"/>
<path d="M137.792 197.112C138.463 197.184 138.647 196.876 138.821 196.519L139.405 196.582L138.813 202.109L137.945 202.015L138.397 197.8L137.726 197.728L137.792 197.112Z" fill="#263238"/>
<path d="M140.682 197.339C141.026 197.377 141.181 197.602 141.142 197.963L141.135 198.033L140.8 197.997L140.81 197.903C140.827 197.742 140.769 197.674 140.656 197.663C140.544 197.65 140.473 197.704 140.455 197.866C140.438 198.03 140.496 198.16 140.705 198.388C140.974 198.681 141.048 198.878 141.02 199.136C140.981 199.498 140.778 199.684 140.431 199.647C140.082 199.609 139.924 199.384 139.963 199.023L139.977 198.885L140.312 198.921L140.295 199.082C140.278 199.243 140.343 199.31 140.455 199.321C140.568 199.333 140.645 199.282 140.663 199.121C140.68 198.957 140.623 198.827 140.412 198.599C140.143 198.306 140.07 198.109 140.098 197.851C140.137 197.489 140.337 197.302 140.682 197.339Z" fill="#263238"/>
<path d="M141.304 197.432L142.4 197.549L142.366 197.872L141.995 197.832L141.788 199.766L141.433 199.728L141.64 197.794L141.269 197.754L141.304 197.432Z" fill="#263238"/>
</g>
<mask id="mask20_53_6037" style="mask-type:luminance" maskUnits="userSpaceOnUse" x="85" y="107" width="70" height="113">
<path d="M154.656 110.375L148.235 219.44L85.1531 217.368L90.1313 133.797L91.6804 107.846L119.167 108.952L154.656 110.375Z" fill="white"/>
</mask>
<g mask="url(#mask20_53_6037)">
<path d="M120.78 124.038L108.467 121.352C108.149 121.283 107.947 120.969 108.017 120.651L109.691 112.976C109.761 112.658 110.074 112.456 110.392 112.525L122.705 115.211C123.023 115.281 123.225 115.594 123.155 115.912L121.481 123.589C121.412 123.906 121.098 124.108 120.78 124.038Z" fill="white" stroke="#263238" stroke-width="0.662" stroke-miterlimit="10" stroke-linecap="round" stroke-linejoin="round"/>
<path d="M112.519 120.101C112.512 120.088 112.498 120.075 112.476 120.054C112.446 120.028 112.466 119.974 112.443 119.942C112.434 119.929 112.419 119.922 112.406 119.912C112.371 119.886 112.352 119.845 112.333 119.806C112.328 119.794 112.322 119.782 112.324 119.769C112.328 119.745 112.355 119.733 112.375 119.719C112.405 119.7 112.427 119.668 112.434 119.633C112.437 119.621 112.438 119.606 112.448 119.598C112.459 119.59 112.476 119.592 112.486 119.582C112.493 119.575 112.494 119.564 112.495 119.555C112.506 119.429 112.416 119.336 112.338 119.241C112.145 119.004 112.106 118.879 112.14 118.721C112.175 118.563 112.251 118.517 112.361 118.541C112.472 118.565 112.522 118.639 112.487 118.797L112.467 118.888L112.796 118.959L112.811 118.89C112.876 118.59 112.792 118.373 112.556 118.268L112.592 118.104L112.308 118.042L112.272 118.206C112.017 118.207 111.852 118.37 111.788 118.666C111.733 118.919 111.792 119.117 112.028 119.403C112.222 119.637 112.26 119.764 112.226 119.923C112.191 120.081 112.109 120.122 111.999 120.098C111.888 120.074 111.831 120.002 111.866 119.844L111.903 119.67L111.575 119.599L111.542 119.75C111.476 120.05 111.561 120.271 111.799 120.375L111.764 120.536L112.048 120.599L112.083 120.438C112.082 120.444 112.24 120.415 112.254 120.41C112.305 120.391 112.352 120.362 112.392 120.324C112.434 120.285 112.47 120.237 112.497 120.185C112.52 120.14 112.529 120.121 112.519 120.101Z" fill="#263238"/>
<path d="M114.362 119.994C114.357 119.943 114.345 119.891 114.323 119.839C114.313 119.815 114.301 119.788 114.309 119.764C114.316 119.743 114.336 119.728 114.352 119.713C114.53 119.557 114.311 119.344 114.144 119.308C114.005 119.277 113.895 119.313 113.803 119.402L113.947 118.881L114.553 119.013L114.622 118.697L113.706 118.497C113.696 118.536 113.664 118.599 113.668 118.638C113.674 118.685 113.723 118.7 113.725 118.748C113.725 118.773 113.714 118.797 113.715 118.822C113.717 118.862 113.753 118.89 113.785 118.915C113.817 118.94 113.85 118.973 113.846 119.012C113.844 119.029 113.836 119.044 113.827 119.058C113.795 119.115 113.757 119.175 113.697 119.2C113.674 119.21 113.645 119.218 113.635 119.241C113.63 119.253 113.631 119.266 113.63 119.279C113.624 119.325 113.581 119.357 113.541 119.382C113.41 119.469 113.403 119.618 113.363 119.766L113.692 119.838L113.706 119.772C113.741 119.614 113.823 119.569 113.934 119.593C114.044 119.617 114.101 119.692 114.066 119.851L113.96 120.337C113.926 120.495 113.844 120.536 113.733 120.513C113.623 120.489 113.566 120.417 113.6 120.258L113.645 120.053L113.317 119.982L113.277 120.165C113.2 120.518 113.333 120.759 113.674 120.834C114.015 120.908 114.236 120.744 114.313 120.391C114.342 120.255 114.374 120.125 114.362 119.994Z" fill="#263238"/>
<path d="M118.683 120.92C118.678 120.869 118.666 120.818 118.644 120.765C118.634 120.742 118.622 120.715 118.63 120.691C118.637 120.669 118.657 120.655 118.673 120.64C118.851 120.483 118.632 120.269 118.466 120.234C118.326 120.203 118.217 120.239 118.124 120.328L118.268 119.807L118.874 119.939L118.943 119.623L118.027 119.423C118.017 119.463 117.985 119.525 117.99 119.564C117.995 119.611 118.044 119.626 118.046 119.674C118.046 119.699 118.035 119.723 118.036 119.748C118.039 119.788 118.074 119.816 118.106 119.841C118.138 119.866 118.171 119.899 118.167 119.938C118.165 119.955 118.157 119.97 118.148 119.984C118.116 120.041 118.078 120.101 118.018 120.127C117.995 120.136 117.966 120.144 117.956 120.167C117.952 120.179 117.952 120.192 117.951 120.205C117.945 120.251 117.902 120.283 117.862 120.309C117.731 120.395 117.724 120.545 117.684 120.693L118.013 120.764L118.027 120.698C118.062 120.54 118.144 120.495 118.255 120.519C118.366 120.543 118.422 120.618 118.387 120.777L118.281 121.263C118.247 121.421 118.165 121.462 118.054 121.439C117.944 121.415 117.887 121.343 117.921 121.184L117.966 120.979L117.638 120.908L117.598 121.091C117.521 121.445 117.654 121.686 117.995 121.76C118.336 121.834 118.557 121.67 118.634 121.317C118.662 121.182 118.695 121.052 118.683 120.92Z" fill="#263238"/>
<path d="M115.116 119.337C115.15 119.179 115.233 119.134 115.344 119.158C115.418 119.174 115.454 119.226 115.468 119.298C115.504 119.31 115.544 119.319 115.581 119.327C115.587 119.328 115.595 119.33 115.599 119.335C115.606 119.341 115.606 119.352 115.607 119.361C115.611 119.399 115.637 119.431 115.669 119.453C115.714 119.484 115.767 119.502 115.812 119.534C115.923 119.212 115.736 118.913 115.413 118.842C115.072 118.768 114.841 118.93 114.764 119.283C114.754 119.326 114.743 119.369 114.736 119.412C114.719 119.518 114.754 119.481 114.845 119.522C114.884 119.54 114.985 119.617 114.892 119.651C114.882 119.655 114.871 119.656 114.861 119.661C114.852 119.666 114.844 119.678 114.848 119.688C114.871 119.697 114.894 119.706 114.912 119.723C114.93 119.739 114.941 119.766 114.933 119.789C114.927 119.809 114.907 119.823 114.9 119.844C114.894 119.862 114.898 119.888 114.881 119.897C114.873 119.902 114.863 119.901 114.855 119.905C114.841 119.913 114.807 119.99 114.793 120.008C114.772 120.035 114.744 120.07 114.713 120.087C114.623 120.135 114.587 120.097 114.56 120.219C114.544 120.289 114.529 120.36 114.514 120.431C114.436 120.785 114.578 121.028 114.92 121.102C115.261 121.176 115.491 121.014 115.569 120.661L115.669 120.2C115.657 120.195 115.645 120.197 115.634 120.191C115.555 120.156 115.481 120.114 115.411 120.065C115.387 120.049 115.369 120.028 115.347 120.011L115.217 120.607C115.183 120.765 115.1 120.81 114.989 120.786C114.879 120.762 114.823 120.687 114.857 120.528C114.857 120.528 115.052 119.632 115.051 119.626C115.046 119.569 115.064 119.516 115.089 119.466L115.116 119.337Z" fill="#263238"/>
<path d="M116.747 120.43C116.758 120.421 116.768 120.412 116.774 120.399C116.789 120.368 116.776 120.33 116.807 120.285C116.861 120.295 116.903 120.297 116.956 120.297L117.068 119.786C117.145 119.433 117.003 119.19 116.661 119.116C116.32 119.042 116.09 119.203 116.012 119.557L115.992 119.649C116.041 119.69 116.068 119.754 116.113 119.79C116.156 119.825 116.23 119.818 116.216 119.905C116.21 119.947 116.176 119.994 116.201 120.029C116.215 120.048 116.243 120.054 116.255 120.076C116.268 120.099 116.252 120.129 116.233 120.148C116.214 120.168 116.189 120.183 116.178 120.208C116.161 120.246 116.175 120.303 116.137 120.321C116.078 120.347 116.011 120.237 115.94 120.248C115.879 120.258 115.855 120.31 115.836 120.363C115.798 120.471 115.785 120.595 115.76 120.707C115.683 121.061 115.825 121.304 116.166 121.378C116.317 121.411 116.482 121.401 116.608 121.302C116.67 121.254 116.717 121.189 116.752 121.119C116.808 121.006 116.804 120.972 116.73 120.873C116.723 120.864 116.715 120.854 116.704 120.853C116.691 120.852 116.68 120.864 116.669 120.873C116.658 120.881 116.639 120.883 116.634 120.871C116.619 120.818 116.603 120.765 116.588 120.712C116.585 120.703 116.582 120.694 116.585 120.685C116.59 120.665 116.615 120.658 116.631 120.646C116.683 120.608 116.657 120.519 116.697 120.469C116.713 120.452 116.731 120.442 116.747 120.43ZM116.465 120.882C116.431 121.039 116.348 121.084 116.237 121.061C116.127 121.037 116.071 120.961 116.105 120.803L116.365 119.61C116.4 119.451 116.482 119.407 116.593 119.431C116.703 119.455 116.76 119.53 116.725 119.688L116.465 120.882Z" fill="#263238"/>
<path d="M117.333 121.253L117.26 121.588L116.925 121.515L116.998 121.18L117.333 121.253Z" fill="#263238"/>
<path d="M120.098 120.663C120.139 120.634 120.143 120.507 120.153 120.459C120.231 120.105 120.088 119.862 119.747 119.788C119.406 119.714 119.175 119.876 119.098 120.229C119.066 120.375 119.036 120.522 119.002 120.668C119.087 120.746 118.985 120.874 119.038 120.965C119.047 120.979 119.06 120.992 119.06 121.01C119.063 121.062 118.962 121.07 118.963 121.123C118.963 121.133 118.967 121.141 118.969 121.151C118.992 121.239 118.912 121.231 118.879 121.272C118.857 121.3 118.855 121.345 118.847 121.38C118.77 121.733 118.912 121.976 119.253 122.05C119.594 122.124 119.824 121.963 119.902 121.609C119.928 121.489 119.954 121.368 119.98 121.248C120.001 121.155 120.1 120.908 119.998 120.833C119.976 120.817 119.947 120.81 119.931 120.789C119.911 120.761 119.919 120.722 119.931 120.691C119.969 120.591 120.027 120.701 120.098 120.663ZM119.697 121.245C119.671 121.288 119.631 121.3 119.598 121.353C119.565 121.405 119.563 121.495 119.55 121.555C119.516 121.713 119.433 121.757 119.322 121.733C119.212 121.709 119.156 121.634 119.19 121.476C119.2 121.429 119.255 121.297 119.236 121.255C119.221 121.222 119.171 121.23 119.148 121.18C119.122 121.123 119.138 121.027 119.153 120.969C119.157 120.953 119.161 120.936 119.159 120.92C119.155 120.889 119.126 120.859 119.141 120.832C119.146 120.822 119.157 120.816 119.165 120.807C119.195 120.775 119.181 120.724 119.187 120.664C119.195 120.658 119.206 120.661 119.214 120.665C119.424 120.742 119.42 120.418 119.449 120.283C119.484 120.125 119.567 120.08 119.677 120.104C119.788 120.128 119.844 120.203 119.81 120.362C119.782 120.488 119.715 120.651 119.725 120.778C119.784 120.779 119.829 120.827 119.832 120.885C119.834 120.923 119.819 120.961 119.831 120.997C119.841 121.025 119.868 121.053 119.856 121.08C119.845 121.103 119.815 121.106 119.79 121.114C119.753 121.126 119.723 121.159 119.715 121.197C119.712 121.217 119.705 121.233 119.697 121.245Z" fill="#263238"/>
<path d="M116.401 115.845C117.147 116.008 117.893 116.171 118.639 116.334" stroke="#263238" stroke-width="0.662" stroke-miterlimit="10" stroke-linecap="round" stroke-linejoin="round"/>
<path d="M111.317 114.736C112.649 115.027 113.981 115.318 115.314 115.608" stroke="#263238" stroke-width="0.662" stroke-miterlimit="10" stroke-linecap="round" stroke-linejoin="round"/>
<path d="M110.982 116.272L113.605 116.844" stroke="#263238" stroke-width="0.662" stroke-miterlimit="10" stroke-linecap="round" stroke-linejoin="round"/>
</g>
<mask id="mask21_53_6037" style="mask-type:luminance" maskUnits="userSpaceOnUse" x="85" y="107" width="70" height="113">
<path d="M154.656 110.375L148.235 219.44L85.1531 217.368L90.1313 133.797L91.6804 107.846L119.167 108.952L154.656 110.375Z" fill="white"/>
</mask>
<g mask="url(#mask21_53_6037)">
<path opacity="0.4" d="M88.0608 216.403C88.0608 216.403 92.2512 215.133 98.711 214.974C105.171 214.815 109.292 216.037 114.599 213.418C119.906 210.799 123.329 215.513 128.392 212.895C133.455 210.276 135.81 206.071 138.736 206.165C141.661 206.26 146.026 159.367 147.422 151.299C148.819 143.232 151.809 120.732 152.835 116.17L147.073 217.832L88.0608 216.403Z" fill="white"/>
</g>
<mask id="mask22_53_6037" style="mask-type:luminance" maskUnits="userSpaceOnUse" x="85" y="107" width="70" height="113">
<path d="M154.656 110.375L148.235 219.44L85.1531 217.368L90.1313 133.797L91.6804 107.846L119.167 108.952L154.656 110.375Z" fill="white"/>
</mask>
<g mask="url(#mask22_53_6037)">
<path d="M88.3227 196.395L104.472 216.038L87.4158 214.974L88.3227 196.395Z" fill="#FDEB48" stroke="#263238" stroke-width="0.662" stroke-miterlimit="10" stroke-linecap="round" stroke-linejoin="round"/>
</g>
<mask id="mask23_53_6037" style="mask-type:luminance" maskUnits="userSpaceOnUse" x="85" y="107" width="70" height="113">
<path d="M154.656 110.375L148.235 219.44L85.1531 217.368L90.1313 133.797L91.6804 107.846L119.167 108.952L154.656 110.375Z" fill="white"/>
</mask>
<g mask="url(#mask23_53_6037)">
<path d="M131.179 157.529L130.918 165.005C130.766 169.372 127.068 172.82 122.702 172.667L115.021 172.399C110.654 172.247 107.206 168.55 107.359 164.183L107.698 154.451C107.85 150.085 111.548 146.637 115.914 146.789L123.595 147.057C123.807 147.065 124.019 147.078 124.223 147.106C123.092 148.212 122.362 149.743 122.303 151.444C122.18 154.964 124.932 157.914 128.452 158.037C129.417 158.07 130.345 157.884 131.179 157.529Z" fill="#FDEB48" stroke="#263238" stroke-width="0.662" stroke-miterlimit="10" stroke-linecap="round" stroke-linejoin="round"/>
<path d="M132.556 151.103C132.486 153.109 130.804 154.677 128.799 154.607C126.793 154.537 125.225 152.855 125.295 150.85C125.365 148.845 127.047 147.276 129.052 147.346C131.057 147.416 132.626 149.098 132.556 151.103Z" fill="#FDEB48" stroke="#263238" stroke-width="0.662" stroke-miterlimit="10" stroke-linecap="round" stroke-linejoin="round"/>
</g>
<mask id="mask24_53_6037" style="mask-type:luminance" maskUnits="userSpaceOnUse" x="85" y="107" width="70" height="113">
<path d="M154.656 110.375L148.235 219.44L85.1531 217.368L90.1313 133.797L91.6804 107.846L119.167 108.952L154.656 110.375Z" fill="white"/>
</mask>
<g mask="url(#mask24_53_6037)">
<path opacity="0.4" d="M109.541 165.1L120.828 155.454C120.828 155.454 119.396 150.279 120.828 148.645L115.404 148.633C112.695 148.627 110.449 150.73 110.279 153.434L109.541 165.1Z" fill="white"/>
</g>
<mask id="mask25_53_6037" style="mask-type:luminance" maskUnits="userSpaceOnUse" x="85" y="107" width="70" height="113">
<path d="M154.656 110.375L148.235 219.44L85.1531 217.368L90.1313 133.797L91.6804 107.846L119.167 108.952L154.656 110.375Z" fill="white"/>
</mask>
<g mask="url(#mask25_53_6037)">
<path opacity="0.4" d="M127.388 151.299L129.808 148.632C129.808 148.632 128.305 147.617 127.388 148.632C126.471 149.648 127.388 151.299 127.388 151.299Z" fill="white"/>
</g>
<mask id="mask26_53_6037" style="mask-type:luminance" maskUnits="userSpaceOnUse" x="85" y="107" width="70" height="113">
<path d="M154.656 110.375L148.235 219.44L85.1531 217.368L90.1313 133.797L91.6804 107.846L119.167 108.952L154.656 110.375Z" fill="white"/>
</mask>
<g mask="url(#mask26_53_6037)">
<path d="M126.209 208.966L144.411 209.752" stroke="#263238" stroke-width="0.662" stroke-miterlimit="10" stroke-linecap="round" stroke-linejoin="round"/>
</g>
<mask id="mask27_53_6037" style="mask-type:luminance" maskUnits="userSpaceOnUse" x="85" y="107" width="70" height="113">
<path d="M154.656 110.375L148.235 219.44L85.1531 217.368L90.1313 133.797L91.6804 107.846L119.167 108.952L154.656 110.375Z" fill="white"/>
</mask>
<g mask="url(#mask27_53_6037)">
<path d="M119.906 210.8L144.411 212.109" stroke="#263238" stroke-width="0.662" stroke-miterlimit="10" stroke-linecap="round" stroke-linejoin="round"/>
</g>
<mask id="mask28_53_6037" style="mask-type:luminance" maskUnits="userSpaceOnUse" x="85" y="107" width="70" height="113">
<path d="M154.656 110.375L148.235 219.44L85.1531 217.368L90.1313 133.797L91.6804 107.846L119.167 108.952L154.656 110.375Z" fill="white"/>
</mask>
<g mask="url(#mask28_53_6037)">
<path d="M137.995 216.038H144.411" stroke="#263238" stroke-width="0.662" stroke-miterlimit="10" stroke-linecap="round" stroke-linejoin="round"/>
</g>
<mask id="mask29_53_6037" style="mask-type:luminance" maskUnits="userSpaceOnUse" x="85" y="107" width="70" height="113">
<path d="M154.656 110.375L148.235 219.44L85.1531 217.368L90.1313 133.797L91.6804 107.846L119.167 108.952L154.656 110.375Z" fill="white"/>
</mask>
<g mask="url(#mask29_53_6037)">
<path opacity="0.2" d="M115.691 149.195C106.304 153.71 96.1357 137.895 92.5741 135.717C91.7201 135.194 90.8926 134.518 90.1313 133.797L91.6804 107.846L119.167 108.952C118.988 112.818 119.048 117.088 119.908 119.564C121.755 124.899 125.072 144.687 115.691 149.195Z" fill="black" fill-opacity="0.7"/>
</g>
<mask id="mask30_53_6037" style="mask-type:luminance" maskUnits="userSpaceOnUse" x="85" y="107" width="70" height="113">
<path d="M154.656 110.375L148.235 219.44L85.1531 217.368L90.1313 133.797L91.6804 107.846L119.167 108.952L154.656 110.375Z" fill="white"/>
</mask>
<g mask="url(#mask30_53_6037)">
<path opacity="0.4" d="M105.171 150.002C105.171 150.002 112.678 153.257 116.082 151.3C119.487 149.343 123.153 145.676 123.678 137.471C123.678 137.471 128.144 149.023 119.132 152.486C110.119 155.948 105.171 150.002 105.171 150.002Z" fill="white"/>
</g>
<mask id="mask31_53_6037" style="mask-type:luminance" maskUnits="userSpaceOnUse" x="85" y="107" width="70" height="113">
<path d="M154.656 110.375L148.235 219.44L85.1531 217.368L90.1313 133.797L91.6804 107.846L119.167 108.952L154.656 110.375Z" fill="white"/>
</mask>
<g mask="url(#mask31_53_6037)">
<path opacity="0.4" d="M102.247 154.624C102.247 154.624 117.436 158.713 123.984 151.299C123.984 151.299 123.11 155.41 116.083 156.588C109.055 157.767 102.247 154.624 102.247 154.624Z" fill="white"/>
</g>
<mask id="mask32_53_6037" style="mask-type:luminance" maskUnits="userSpaceOnUse" x="85" y="107" width="70" height="113">
<path d="M154.656 110.375L148.235 219.44L85.1531 217.368L90.1313 133.797L91.6804 107.846L119.167 108.952L154.656 110.375Z" fill="white"/>
</mask>
<g mask="url(#mask32_53_6037)">
<path opacity="0.4" d="M126.733 128.173C125.576 126.116 126.996 144.621 126.996 144.621C126.996 144.621 129.09 132.364 126.733 128.173Z" fill="white"/>
</g>
<path d="M154.656 110.375L148.235 219.44L85.1531 217.368L90.1313 133.797L91.6804 107.846L119.167 108.952L154.656 110.375Z" stroke="#263238" stroke-width="0.662" stroke-miterlimit="10" stroke-linecap="round" stroke-linejoin="round"/>
<path opacity="0.4" d="M151.468 220.019L149.169 219.44L154.657 119.562L155.628 126.158L151.468 220.019Z" fill="white"/>
<path d="M115.691 149.195C114.062 150.122 111.865 150.168 110.038 149.281C108.78 148.678 107.588 147.586 106.522 145.666C103.907 140.953 96.8306 130.215 95.5265 127.097C94.2157 123.979 91.336 115.287 88.4563 111.626C85.57 107.959 84.001 102.458 84.001 102.458L82.9551 49.0342C84.524 56.7598 88.8469 65.5313 88.8469 65.5313C95.2617 68.934 98.1414 73.9122 98.1414 73.9122C98.7835 74.5874 99.3859 75.3686 99.9486 76.2491C104.225 82.8691 106.297 94.7784 106.522 104.027C106.787 114.506 110.19 119.219 115.691 128.382C121.192 137.55 119.264 147.161 115.691 149.195Z" fill="white"/>
<path opacity="0.4" d="M115.691 149.195C114.037 150.076 111.865 150.168 110.038 149.281C113.043 148.46 116.989 146.918 116.082 144.62C114.658 140.993 110.494 146.375 108.402 144.62C106.304 142.866 98.7108 132.804 103.537 128.375C108.356 123.939 106.827 116.518 103.537 114.427C100.24 112.328 102.378 107.35 103.424 99.5051C104.06 94.7585 101.816 84.0077 99.9487 76.249C104.225 82.869 106.297 94.7784 106.522 104.027C106.787 114.506 110.19 119.219 115.691 128.382C121.192 137.55 119.265 147.292 115.691 149.195Z" fill="#FDEB48"/>
<path d="M82.9539 49.0316C84.5254 56.7571 88.8463 65.5306 88.8463 65.5306C95.2624 68.9352 98.1435 73.9108 98.1435 73.9108C103.643 79.6722 106.262 93.5524 106.524 104.028C106.786 114.503 110.19 119.217 115.69 128.384C121.19 137.55 119.662 147.029 115.69 149.196C112.922 150.707 109.143 150.382 106.524 145.668C103.905 140.954 96.834 130.216 95.5246 127.097C94.2151 123.978 91.3341 115.288 88.4538 111.622C85.5727 107.956 84.0018 102.456 84.0018 102.456" stroke="#263238" stroke-width="0.662" stroke-miterlimit="10" stroke-linecap="round" stroke-linejoin="round"/>
<path d="M99.9487 126.158C99.9487 126.158 104.226 125.775 106.182 124.159" stroke="#263238" stroke-width="0.662" stroke-miterlimit="10" stroke-linecap="round" stroke-linejoin="round"/>
<path d="M82.4304 103.543C82.4304 103.543 81.6009 105.558 85.9654 107.503" stroke="#263238" stroke-width="0.662" stroke-miterlimit="10" stroke-linecap="round" stroke-linejoin="round"/>
</svg>
